<mxfile host="Electron" modified="2024-02-20T15:25:26.661Z" agent="Mozilla/5.0 (Windows NT 10.0; Win64; x64) AppleWebKit/537.36 (KHTML, like Gecko) draw.io/23.0.2 Chrome/120.0.6099.109 Electron/28.1.0 Safari/537.36" etag="yDocTB1TCFPDHtGOBYtG" version="23.0.2" type="device">
  <diagram name="Page-1" id="03018318-947c-dd8e-b7a3-06fadd420f32">
    <mxGraphModel dx="3323" dy="3906" grid="1" gridSize="10" guides="1" tooltips="1" connect="1" arrows="1" fold="1" page="1" pageScale="1" pageWidth="1100" pageHeight="850" background="none" math="0" shadow="0">
      <root>
        <mxCell id="0" />
        <mxCell id="1" parent="0" />
        <mxCell id="joKZxz_EQ2yr1KU-Yp7v-136" value="" style="whiteSpace=wrap;html=1;rounded=0;shadow=0;labelBackgroundColor=none;strokeWidth=1;fontFamily=Verdana;fontSize=12;align=center;comic=1;" parent="1" vertex="1">
          <mxGeometry x="80" y="620" width="960" height="240" as="geometry" />
        </mxCell>
        <mxCell id="joKZxz_EQ2yr1KU-Yp7v-54" value="" style="whiteSpace=wrap;html=1;rounded=0;shadow=0;labelBackgroundColor=none;strokeWidth=1;fontFamily=Verdana;fontSize=12;align=center;comic=1;" parent="1" vertex="1">
          <mxGeometry x="-960" y="-210" width="410" height="1370" as="geometry" />
        </mxCell>
        <mxCell id="677b7b8949515195-9" value="" style="line;strokeWidth=1;html=1;rounded=0;shadow=0;labelBackgroundColor=none;fillColor=none;fontFamily=Verdana;fontSize=14;fontColor=#000000;align=center;comic=1;" parent="1" vertex="1">
          <mxGeometry x="-1015" y="-820" width="530" height="10" as="geometry" />
        </mxCell>
        <mxCell id="677b7b8949515195-10" value="" style="whiteSpace=wrap;html=1;rounded=0;shadow=0;labelBackgroundColor=none;strokeWidth=1;fontFamily=Verdana;fontSize=12;align=center;comic=1;" parent="1" vertex="1">
          <mxGeometry x="30" y="-600" width="1040" height="50" as="geometry" />
        </mxCell>
        <mxCell id="677b7b8949515195-11" value="Acceuil" style="text;html=1;points=[];align=left;verticalAlign=top;spacingTop=-4;fontSize=14;fontFamily=Verdana" parent="1" vertex="1">
          <mxGeometry x="40" y="-585" width="60" height="20" as="geometry" />
        </mxCell>
        <mxCell id="677b7b8949515195-12" value="Services" style="text;html=1;points=[];align=left;verticalAlign=top;spacingTop=-4;fontSize=14;fontFamily=Verdana" parent="1" vertex="1">
          <mxGeometry x="120" y="-585" width="60" height="20" as="geometry" />
        </mxCell>
        <mxCell id="677b7b8949515195-13" value="Véhicules d&#39;occasion" style="text;html=1;points=[];align=left;verticalAlign=top;spacingTop=-4;fontSize=14;fontFamily=Verdana" parent="1" vertex="1">
          <mxGeometry x="200" y="-585" width="150" height="20" as="geometry" />
        </mxCell>
        <mxCell id="677b7b8949515195-14" value="Contact" style="text;html=1;points=[];align=left;verticalAlign=top;spacingTop=-4;fontSize=14;fontFamily=Verdana" parent="1" vertex="1">
          <mxGeometry x="360" y="-585" width="60" height="20" as="geometry" />
        </mxCell>
        <mxCell id="hLtUcnZLx8B9XBv1_e37-2" value="Dashboard Admin" style="text;html=1;points=[];align=left;verticalAlign=top;spacingTop=-4;fontSize=14;fontFamily=Verdana;fillColor=#f8cecc;strokeColor=#b85450;" parent="1" vertex="1">
          <mxGeometry x="440" y="-585" width="130" height="20" as="geometry" />
        </mxCell>
        <mxCell id="hLtUcnZLx8B9XBv1_e37-3" value="Dashboard Utilisateur" style="text;html=1;points=[];align=left;verticalAlign=top;spacingTop=-4;fontSize=14;fontFamily=Verdana;fillColor=#dae8fc;strokeColor=#6c8ebf;" parent="1" vertex="1">
          <mxGeometry x="600" y="-585" width="160" height="20" as="geometry" />
        </mxCell>
        <mxCell id="hLtUcnZLx8B9XBv1_e37-4" value="Se connecter" style="text;html=1;points=[];align=left;verticalAlign=top;spacingTop=-4;fontSize=14;fontFamily=Verdana;fillColor=#d5e8d4;strokeColor=#82b366;" parent="1" vertex="1">
          <mxGeometry x="950" y="-585" width="100" height="20" as="geometry" />
        </mxCell>
        <mxCell id="hLtUcnZLx8B9XBv1_e37-5" value="" style="line;strokeWidth=1;html=1;rounded=0;shadow=0;labelBackgroundColor=none;fillColor=none;fontFamily=Verdana;fontSize=14;fontColor=#000000;align=center;comic=1;" parent="1" vertex="1">
          <mxGeometry x="20" y="1840" width="1060" height="10" as="geometry" />
        </mxCell>
        <mxCell id="joKZxz_EQ2yr1KU-Yp7v-1" value="" style="whiteSpace=wrap;html=1;rounded=0;shadow=0;labelBackgroundColor=none;strokeWidth=1;fontFamily=Verdana;fontSize=12;align=center;comic=1;" parent="1" vertex="1">
          <mxGeometry x="30" y="880" width="1020" height="540" as="geometry" />
        </mxCell>
        <mxCell id="joKZxz_EQ2yr1KU-Yp7v-2" value="" style="whiteSpace=wrap;html=1;rounded=0;shadow=0;labelBackgroundColor=none;strokeWidth=1;fontFamily=Verdana;fontSize=12;align=center;comic=1;" parent="1" vertex="1">
          <mxGeometry x="335" y="-790" width="400" height="140" as="geometry" />
        </mxCell>
        <mxCell id="joKZxz_EQ2yr1KU-Yp7v-4" value="Logo" style="text;html=1;points=[];align=left;verticalAlign=top;spacingTop=-4;fontSize=14;fontFamily=Verdana" parent="1" vertex="1">
          <mxGeometry x="505" y="-720" width="60" height="20" as="geometry" />
        </mxCell>
        <mxCell id="joKZxz_EQ2yr1KU-Yp7v-5" value="" style="whiteSpace=wrap;html=1;rounded=0;shadow=0;labelBackgroundColor=none;strokeWidth=1;fontFamily=Verdana;fontSize=12;align=center;comic=1;fillColor=default;strokeColor=#82b366;" parent="1" vertex="1">
          <mxGeometry x="80" y="-490" width="960" height="1080" as="geometry" />
        </mxCell>
        <mxCell id="joKZxz_EQ2yr1KU-Yp7v-27" style="edgeStyle=orthogonalEdgeStyle;rounded=0;orthogonalLoop=1;jettySize=auto;html=1;entryX=0;entryY=0.25;entryDx=0;entryDy=0;" parent="1" source="joKZxz_EQ2yr1KU-Yp7v-9" target="joKZxz_EQ2yr1KU-Yp7v-5" edge="1">
          <mxGeometry relative="1" as="geometry" />
        </mxCell>
        <mxCell id="joKZxz_EQ2yr1KU-Yp7v-9" value="&lt;h1&gt;Section dynamique&lt;/h1&gt;&lt;p&gt;Quand le visiteur sélectionne un élément dans la barre de navigation, il n&#39;y aura que cette section qui changera.&lt;/p&gt;" style="text;html=1;strokeColor=none;fillColor=none;spacing=5;spacingTop=-20;whiteSpace=wrap;overflow=hidden;rounded=0;" parent="1" vertex="1">
          <mxGeometry x="-290" y="140" width="190" height="140" as="geometry" />
        </mxCell>
        <mxCell id="joKZxz_EQ2yr1KU-Yp7v-10" value="" style="whiteSpace=wrap;html=1;rounded=0;shadow=0;labelBackgroundColor=none;strokeWidth=1;fillColor=none;fontFamily=Verdana;fontSize=12;align=center;comic=1;" parent="1" vertex="1">
          <mxGeometry x="120" y="925" width="180" height="185" as="geometry" />
        </mxCell>
        <mxCell id="joKZxz_EQ2yr1KU-Yp7v-11" value="" style="whiteSpace=wrap;html=1;rounded=0;shadow=0;labelBackgroundColor=none;strokeWidth=1;fillColor=none;fontFamily=Verdana;fontSize=12;align=center;comic=1;" parent="1" vertex="1">
          <mxGeometry x="780" y="930" width="180" height="380" as="geometry" />
        </mxCell>
        <mxCell id="joKZxz_EQ2yr1KU-Yp7v-12" value="" style="whiteSpace=wrap;html=1;rounded=0;shadow=0;labelBackgroundColor=none;strokeWidth=1;fillColor=none;fontFamily=Verdana;fontSize=12;align=center;comic=1;" parent="1" vertex="1">
          <mxGeometry x="430" y="930" width="180" height="170" as="geometry" />
        </mxCell>
        <mxCell id="joKZxz_EQ2yr1KU-Yp7v-13" value="&lt;h1&gt;Horaire&lt;/h1&gt;&lt;p&gt;Tableau horaire d&#39;ouverture&lt;/p&gt;" style="text;html=1;strokeColor=none;fillColor=none;spacing=5;spacingTop=-20;whiteSpace=wrap;overflow=hidden;rounded=0;" parent="1" vertex="1">
          <mxGeometry x="785" y="1040" width="165" height="110" as="geometry" />
        </mxCell>
        <mxCell id="joKZxz_EQ2yr1KU-Yp7v-14" value="&lt;h1&gt;Liens rapides&lt;/h1&gt;&lt;p style=&quot;&quot;&gt;&lt;font style=&quot;font-size: 11px;&quot;&gt;- &lt;/font&gt;&lt;font style=&quot;font-size: 10px;&quot;&gt;Acceuil&lt;/font&gt;&lt;/p&gt;&lt;p style=&quot;&quot;&gt;&lt;font style=&quot;font-size: 11px;&quot;&gt;- &lt;/font&gt;&lt;font style=&quot;font-size: 10px;&quot;&gt;Services&lt;/font&gt;&lt;/p&gt;&lt;p style=&quot;&quot;&gt;&lt;font style=&quot;font-size: 11px;&quot;&gt;-&lt;/font&gt;&lt;font style=&quot;font-size: 10px;&quot;&gt;Véhicules d&#39;occasion&lt;/font&gt;&lt;/p&gt;&lt;p style=&quot;&quot;&gt;&lt;font style=&quot;font-size: 11px;&quot;&gt;- &lt;/font&gt;&lt;font style=&quot;font-size: 10px;&quot;&gt;Contact&lt;/font&gt;&lt;/p&gt;" style="text;html=1;strokeColor=none;fillColor=none;spacing=5;spacingTop=-20;whiteSpace=wrap;overflow=hidden;rounded=0;" parent="1" vertex="1">
          <mxGeometry x="440" y="935" width="180" height="145" as="geometry" />
        </mxCell>
        <mxCell id="joKZxz_EQ2yr1KU-Yp7v-16" value="&lt;h1&gt;Contactez-moi&lt;/h1&gt;&lt;p&gt;- Vincent Parrot&lt;br&gt;- adresse&lt;br&gt;- Pays&lt;br&gt;- Lien formulaire de contact&lt;/p&gt;" style="text;html=1;strokeColor=none;fillColor=none;spacing=5;spacingTop=-20;whiteSpace=wrap;overflow=hidden;rounded=0;" parent="1" vertex="1">
          <mxGeometry x="120" y="930" width="180" height="120" as="geometry" />
        </mxCell>
        <mxCell id="joKZxz_EQ2yr1KU-Yp7v-34" value="&lt;h1&gt;Mokup Desktop&lt;br&gt;&lt;/h1&gt;" style="text;html=1;strokeColor=none;fillColor=none;spacing=5;spacingTop=-20;whiteSpace=wrap;overflow=hidden;rounded=0;" parent="1" vertex="1">
          <mxGeometry x="410" y="-1120" width="190" height="120" as="geometry" />
        </mxCell>
        <mxCell id="joKZxz_EQ2yr1KU-Yp7v-35" value="&lt;h1&gt;Mokup Mobile&lt;br&gt;&lt;/h1&gt;" style="text;html=1;strokeColor=none;fillColor=none;spacing=5;spacingTop=-20;whiteSpace=wrap;overflow=hidden;rounded=0;" parent="1" vertex="1">
          <mxGeometry x="-650" y="-1120" width="190" height="120" as="geometry" />
        </mxCell>
        <mxCell id="joKZxz_EQ2yr1KU-Yp7v-36" value="" style="line;strokeWidth=1;html=1;rounded=0;shadow=0;labelBackgroundColor=none;fillColor=none;fontFamily=Verdana;fontSize=14;fontColor=#000000;align=center;comic=1;" parent="1" vertex="1">
          <mxGeometry x="30" y="-830" width="1060" height="10" as="geometry" />
        </mxCell>
        <mxCell id="joKZxz_EQ2yr1KU-Yp7v-37" value="&#xa;&lt;span style=&quot;color: rgb(0, 0, 0); font-family: Verdana; font-size: 14px; font-style: normal; font-variant-ligatures: normal; font-variant-caps: normal; font-weight: 400; letter-spacing: normal; orphans: 2; text-align: left; text-indent: 0px; text-transform: none; widows: 2; word-spacing: 0px; -webkit-text-stroke-width: 0px; background-color: rgb(251, 251, 251); text-decoration-thickness: initial; text-decoration-style: initial; text-decoration-color: initial; float: none; display: inline !important;&quot;&gt;Logo&lt;/span&gt;&#xa;&#xa;" style="whiteSpace=wrap;html=1;rounded=0;shadow=0;labelBackgroundColor=none;strokeWidth=1;fontFamily=Verdana;fontSize=12;align=center;comic=1;" parent="1" vertex="1">
          <mxGeometry x="-950" y="-780" width="400" height="140" as="geometry" />
        </mxCell>
        <mxCell id="joKZxz_EQ2yr1KU-Yp7v-38" value="" style="whiteSpace=wrap;html=1;rounded=0;shadow=0;labelBackgroundColor=none;strokeWidth=1;fillColor=none;fontFamily=Verdana;fontSize=12;align=center;comic=1;" parent="1" vertex="1">
          <mxGeometry x="-960" y="-600" width="410" height="330" as="geometry" />
        </mxCell>
        <mxCell id="joKZxz_EQ2yr1KU-Yp7v-39" value="Acceuil" style="text;html=1;points=[];align=left;verticalAlign=top;spacingTop=-4;fontSize=14;fontFamily=Verdana" parent="1" vertex="1">
          <mxGeometry x="-950" y="-540" width="60" height="20" as="geometry" />
        </mxCell>
        <mxCell id="joKZxz_EQ2yr1KU-Yp7v-40" value="Services" style="text;html=1;points=[];align=left;verticalAlign=top;spacingTop=-4;fontSize=14;fontFamily=Verdana" parent="1" vertex="1">
          <mxGeometry x="-950" y="-500" width="60" height="20" as="geometry" />
        </mxCell>
        <mxCell id="joKZxz_EQ2yr1KU-Yp7v-41" value="Véhicules d&#39;occasion" style="text;html=1;points=[];align=left;verticalAlign=top;spacingTop=-4;fontSize=14;fontFamily=Verdana" parent="1" vertex="1">
          <mxGeometry x="-950" y="-460" width="150" height="20" as="geometry" />
        </mxCell>
        <mxCell id="joKZxz_EQ2yr1KU-Yp7v-42" value="Contact" style="text;html=1;points=[];align=left;verticalAlign=top;spacingTop=-4;fontSize=14;fontFamily=Verdana" parent="1" vertex="1">
          <mxGeometry x="-950" y="-420" width="60" height="20" as="geometry" />
        </mxCell>
        <mxCell id="joKZxz_EQ2yr1KU-Yp7v-43" value="Dashboard Admin" style="text;html=1;points=[];align=left;verticalAlign=top;spacingTop=-4;fontSize=14;fontFamily=Verdana;fillColor=#f8cecc;strokeColor=#b85450;" parent="1" vertex="1">
          <mxGeometry x="-950" y="-380" width="130" height="20" as="geometry" />
        </mxCell>
        <mxCell id="joKZxz_EQ2yr1KU-Yp7v-44" value="Dashboard Utilisateur" style="text;html=1;points=[];align=left;verticalAlign=top;spacingTop=-4;fontSize=14;fontFamily=Verdana;fillColor=#dae8fc;strokeColor=#6c8ebf;" parent="1" vertex="1">
          <mxGeometry x="-950" y="-340" width="160" height="20" as="geometry" />
        </mxCell>
        <mxCell id="joKZxz_EQ2yr1KU-Yp7v-45" value="Se connecter" style="text;html=1;points=[];align=left;verticalAlign=top;spacingTop=-4;fontSize=14;fontFamily=Verdana;fillColor=#d5e8d4;strokeColor=#82b366;" parent="1" vertex="1">
          <mxGeometry x="-950" y="-300" width="100" height="20" as="geometry" />
        </mxCell>
        <mxCell id="joKZxz_EQ2yr1KU-Yp7v-47" value="" style="whiteSpace=wrap;html=1;rounded=0;shadow=0;labelBackgroundColor=none;strokeWidth=1;fillColor=none;fontFamily=Verdana;fontSize=12;align=center;comic=1;" parent="1" vertex="1">
          <mxGeometry x="-950" y="-590" width="30" height="30" as="geometry" />
        </mxCell>
        <mxCell id="joKZxz_EQ2yr1KU-Yp7v-48" value="" style="endArrow=none;html=1;rounded=0;" parent="1" edge="1">
          <mxGeometry width="50" height="50" relative="1" as="geometry">
            <mxPoint x="-927.5" y="-575.1" as="sourcePoint" />
            <mxPoint x="-942.5" y="-574.9" as="targetPoint" />
          </mxGeometry>
        </mxCell>
        <mxCell id="joKZxz_EQ2yr1KU-Yp7v-49" value="" style="endArrow=none;html=1;rounded=0;jumpSize=1;" parent="1" edge="1">
          <mxGeometry width="50" height="50" relative="1" as="geometry">
            <mxPoint x="-927.5" y="-585" as="sourcePoint" />
            <mxPoint x="-942.5" y="-585" as="targetPoint" />
          </mxGeometry>
        </mxCell>
        <mxCell id="joKZxz_EQ2yr1KU-Yp7v-50" value="" style="endArrow=none;html=1;rounded=0;" parent="1" edge="1">
          <mxGeometry width="50" height="50" relative="1" as="geometry">
            <mxPoint x="-927.5" y="-565.0000000000001" as="sourcePoint" />
            <mxPoint x="-942.5" y="-564.95" as="targetPoint" />
          </mxGeometry>
        </mxCell>
        <mxCell id="joKZxz_EQ2yr1KU-Yp7v-51" value="" style="whiteSpace=wrap;html=1;rounded=0;shadow=0;labelBackgroundColor=none;strokeWidth=1;fillColor=none;fontFamily=Verdana;fontSize=12;align=center;comic=1;" parent="1" vertex="1">
          <mxGeometry x="-935" y="-100" width="350" height="200" as="geometry" />
        </mxCell>
        <mxCell id="joKZxz_EQ2yr1KU-Yp7v-52" value="" style="whiteSpace=wrap;html=1;rounded=0;shadow=0;labelBackgroundColor=none;strokeWidth=1;fillColor=none;fontFamily=Verdana;fontSize=12;align=center;comic=1;" parent="1" vertex="1">
          <mxGeometry x="-950" y="-200" width="290" height="70" as="geometry" />
        </mxCell>
        <mxCell id="joKZxz_EQ2yr1KU-Yp7v-56" value="Présentation de Mr Parrot et du garage" style="text;html=1;strokeColor=none;fillColor=none;align=center;verticalAlign=middle;whiteSpace=wrap;rounded=0;" parent="1" vertex="1">
          <mxGeometry x="-820" y="-52.5" width="100" height="65" as="geometry" />
        </mxCell>
        <mxCell id="joKZxz_EQ2yr1KU-Yp7v-57" value="" style="whiteSpace=wrap;html=1;rounded=0;shadow=0;labelBackgroundColor=none;strokeWidth=1;fillColor=none;fontFamily=Verdana;fontSize=12;align=center;comic=1;" parent="1" vertex="1">
          <mxGeometry x="-930" y="130" width="350" height="220" as="geometry" />
        </mxCell>
        <mxCell id="joKZxz_EQ2yr1KU-Yp7v-58" value="&lt;h1&gt;Nos services&lt;/h1&gt;&lt;p&gt;Lorem ipsum dolor sit amet, consectetur adipisicing elit, sed do eiusmod tempor incididunt ut labore et dolore magna aliqua.&lt;/p&gt;" style="text;html=1;strokeColor=none;fillColor=none;spacing=5;spacingTop=-20;whiteSpace=wrap;overflow=hidden;rounded=0;" parent="1" vertex="1">
          <mxGeometry x="-850" y="150" width="190" height="120" as="geometry" />
        </mxCell>
        <mxCell id="joKZxz_EQ2yr1KU-Yp7v-59" value="Button Text" style="strokeWidth=1;shadow=0;dashed=0;align=center;html=1;shape=mxgraph.mockup.buttons.button;strokeColor=#666666;fontColor=#ffffff;mainText=;buttonStyle=round;fontSize=17;fontStyle=1;fillColor=#008cff;whiteSpace=wrap;" parent="1" vertex="1">
          <mxGeometry x="-835" y="280" width="150" height="50" as="geometry" />
        </mxCell>
        <mxCell id="joKZxz_EQ2yr1KU-Yp7v-69" value="" style="whiteSpace=wrap;html=1;rounded=0;shadow=0;labelBackgroundColor=none;strokeWidth=1;fillColor=none;fontFamily=Verdana;fontSize=12;align=center;comic=1;" parent="1" vertex="1">
          <mxGeometry x="-925" y="390" width="350" height="220" as="geometry" />
        </mxCell>
        <mxCell id="joKZxz_EQ2yr1KU-Yp7v-70" value="&lt;h1&gt;Véhicules d&#39;occasion&lt;/h1&gt;&lt;p&gt;Lorem ipsum dolor sit amet, consectetur adipisicing elit, sed do eiusmod tempor incididunt ut labore et dolore magna aliqua.&lt;/p&gt;" style="text;html=1;strokeColor=none;fillColor=none;spacing=5;spacingTop=-20;whiteSpace=wrap;overflow=hidden;rounded=0;" parent="1" vertex="1">
          <mxGeometry x="-845" y="410" width="190" height="120" as="geometry" />
        </mxCell>
        <mxCell id="joKZxz_EQ2yr1KU-Yp7v-71" value="Button Text" style="strokeWidth=1;shadow=0;dashed=0;align=center;html=1;shape=mxgraph.mockup.buttons.button;strokeColor=#666666;fontColor=#ffffff;mainText=;buttonStyle=round;fontSize=17;fontStyle=1;fillColor=#008cff;whiteSpace=wrap;" parent="1" vertex="1">
          <mxGeometry x="-830" y="540" width="150" height="50" as="geometry" />
        </mxCell>
        <mxCell id="joKZxz_EQ2yr1KU-Yp7v-72" value="" style="whiteSpace=wrap;html=1;rounded=0;shadow=0;labelBackgroundColor=none;strokeWidth=1;fillColor=none;fontFamily=Verdana;fontSize=12;align=center;comic=1;" parent="1" vertex="1">
          <mxGeometry x="-930" y="650" width="350" height="220" as="geometry" />
        </mxCell>
        <mxCell id="joKZxz_EQ2yr1KU-Yp7v-73" value="&lt;h1&gt;Nous contacter&lt;/h1&gt;&lt;p&gt;Lorem ipsum dolor sit amet, consectetur adipisicing elit, sed do eiusmod tempor incididunt ut labore et dolore magna aliqua.&lt;/p&gt;" style="text;html=1;strokeColor=none;fillColor=none;spacing=5;spacingTop=-20;whiteSpace=wrap;overflow=hidden;rounded=0;" parent="1" vertex="1">
          <mxGeometry x="-850" y="670" width="190" height="120" as="geometry" />
        </mxCell>
        <mxCell id="joKZxz_EQ2yr1KU-Yp7v-74" value="Button Text" style="strokeWidth=1;shadow=0;dashed=0;align=center;html=1;shape=mxgraph.mockup.buttons.button;strokeColor=#666666;fontColor=#ffffff;mainText=;buttonStyle=round;fontSize=17;fontStyle=1;fillColor=#008cff;whiteSpace=wrap;" parent="1" vertex="1">
          <mxGeometry x="-835" y="800" width="150" height="50" as="geometry" />
        </mxCell>
        <mxCell id="joKZxz_EQ2yr1KU-Yp7v-75" value="" style="whiteSpace=wrap;html=1;rounded=0;shadow=0;labelBackgroundColor=none;strokeWidth=1;fillColor=none;fontFamily=Verdana;fontSize=12;align=center;comic=1;" parent="1" vertex="1">
          <mxGeometry x="-930" y="910" width="350" height="220" as="geometry" />
        </mxCell>
        <mxCell id="joKZxz_EQ2yr1KU-Yp7v-76" value="&lt;h1&gt;Témoignage&lt;/h1&gt;&lt;p&gt;Lorem ipsum dolor sit amet, consectetur adipisicing elit, sed do eiusmod tempor incididunt ut labore et dolore magna aliqua.&lt;/p&gt;" style="text;html=1;strokeColor=none;fillColor=none;spacing=5;spacingTop=-20;whiteSpace=wrap;overflow=hidden;rounded=0;" parent="1" vertex="1">
          <mxGeometry x="-850" y="930" width="190" height="120" as="geometry" />
        </mxCell>
        <mxCell id="joKZxz_EQ2yr1KU-Yp7v-77" value="Button Text" style="strokeWidth=1;shadow=0;dashed=0;align=center;html=1;shape=mxgraph.mockup.buttons.button;strokeColor=#666666;fontColor=#ffffff;mainText=;buttonStyle=round;fontSize=17;fontStyle=1;fillColor=#008cff;whiteSpace=wrap;" parent="1" vertex="1">
          <mxGeometry x="-835" y="1060" width="150" height="50" as="geometry" />
        </mxCell>
        <mxCell id="joKZxz_EQ2yr1KU-Yp7v-89" value="" style="line;strokeWidth=1;html=1;rounded=0;shadow=0;labelBackgroundColor=none;fillColor=none;fontFamily=Verdana;fontSize=14;fontColor=#000000;align=center;comic=1;" parent="1" vertex="1">
          <mxGeometry x="-1090" y="1840" width="1060" height="10" as="geometry" />
        </mxCell>
        <mxCell id="joKZxz_EQ2yr1KU-Yp7v-90" value="" style="whiteSpace=wrap;html=1;rounded=0;shadow=0;labelBackgroundColor=none;strokeWidth=1;fontFamily=Verdana;fontSize=12;align=center;comic=1;" parent="1" vertex="1">
          <mxGeometry x="-980" y="1237.5" width="480" height="552.5" as="geometry" />
        </mxCell>
        <mxCell id="joKZxz_EQ2yr1KU-Yp7v-91" value="" style="whiteSpace=wrap;html=1;rounded=0;shadow=0;labelBackgroundColor=none;strokeWidth=1;fillColor=none;fontFamily=Verdana;fontSize=12;align=center;comic=1;" parent="1" vertex="1">
          <mxGeometry x="-840" y="1282.5" width="180" height="130" as="geometry" />
        </mxCell>
        <mxCell id="joKZxz_EQ2yr1KU-Yp7v-92" value="" style="whiteSpace=wrap;html=1;rounded=0;shadow=0;labelBackgroundColor=none;strokeWidth=1;fillColor=none;fontFamily=Verdana;fontSize=12;align=center;comic=1;" parent="1" vertex="1">
          <mxGeometry x="-840" y="1442.5" width="180" height="130" as="geometry" />
        </mxCell>
        <mxCell id="joKZxz_EQ2yr1KU-Yp7v-93" value="" style="whiteSpace=wrap;html=1;rounded=0;shadow=0;labelBackgroundColor=none;strokeWidth=1;fillColor=none;fontFamily=Verdana;fontSize=12;align=center;comic=1;" parent="1" vertex="1">
          <mxGeometry x="-840" y="1590" width="180" height="170" as="geometry" />
        </mxCell>
        <mxCell id="joKZxz_EQ2yr1KU-Yp7v-94" value="&lt;h1&gt;Horaire&lt;/h1&gt;&lt;p&gt;Tableau horaire d&#39;ouverture&lt;/p&gt;" style="text;html=1;strokeColor=none;fillColor=none;spacing=5;spacingTop=-20;whiteSpace=wrap;overflow=hidden;rounded=0;" parent="1" vertex="1">
          <mxGeometry x="-830" y="1462.5" width="165" height="110" as="geometry" />
        </mxCell>
        <mxCell id="joKZxz_EQ2yr1KU-Yp7v-95" value="&lt;h1&gt;Liens rapides&lt;/h1&gt;&lt;p style=&quot;&quot;&gt;&lt;font style=&quot;font-size: 11px;&quot;&gt;- &lt;/font&gt;&lt;font style=&quot;font-size: 10px;&quot;&gt;Acceuil&lt;/font&gt;&lt;/p&gt;&lt;p style=&quot;&quot;&gt;&lt;font style=&quot;font-size: 11px;&quot;&gt;- &lt;/font&gt;&lt;font style=&quot;font-size: 10px;&quot;&gt;Services&lt;/font&gt;&lt;/p&gt;&lt;p style=&quot;&quot;&gt;&lt;font style=&quot;font-size: 11px;&quot;&gt;-&lt;/font&gt;&lt;font style=&quot;font-size: 10px;&quot;&gt;Véhicules d&#39;occasion&lt;/font&gt;&lt;/p&gt;&lt;p style=&quot;&quot;&gt;&lt;font style=&quot;font-size: 11px;&quot;&gt;- &lt;/font&gt;&lt;font style=&quot;font-size: 10px;&quot;&gt;Contact&lt;/font&gt;&lt;/p&gt;" style="text;html=1;strokeColor=none;fillColor=none;spacing=5;spacingTop=-20;whiteSpace=wrap;overflow=hidden;rounded=0;" parent="1" vertex="1">
          <mxGeometry x="-840" y="1597.5" width="180" height="145" as="geometry" />
        </mxCell>
        <mxCell id="joKZxz_EQ2yr1KU-Yp7v-96" value="&lt;h1&gt;Contactez-moi&lt;/h1&gt;&lt;p&gt;- Vincent Parrot&lt;br&gt;- adresse&lt;br&gt;- Pays&lt;br&gt;- Lien formulaire de contact&lt;/p&gt;" style="text;html=1;strokeColor=none;fillColor=none;spacing=5;spacingTop=-20;whiteSpace=wrap;overflow=hidden;rounded=0;" parent="1" vertex="1">
          <mxGeometry x="-840" y="1287.5" width="180" height="120" as="geometry" />
        </mxCell>
        <mxCell id="joKZxz_EQ2yr1KU-Yp7v-97" style="edgeStyle=orthogonalEdgeStyle;rounded=0;orthogonalLoop=1;jettySize=auto;html=1;entryX=1.001;entryY=0.436;entryDx=0;entryDy=0;entryPerimeter=0;" parent="1" source="joKZxz_EQ2yr1KU-Yp7v-9" target="joKZxz_EQ2yr1KU-Yp7v-54" edge="1">
          <mxGeometry relative="1" as="geometry" />
        </mxCell>
        <mxCell id="joKZxz_EQ2yr1KU-Yp7v-99" style="edgeStyle=orthogonalEdgeStyle;rounded=0;orthogonalLoop=1;jettySize=auto;html=1;entryX=0;entryY=0.5;entryDx=0;entryDy=0;" parent="1" source="joKZxz_EQ2yr1KU-Yp7v-98" target="677b7b8949515195-10" edge="1">
          <mxGeometry relative="1" as="geometry" />
        </mxCell>
        <mxCell id="joKZxz_EQ2yr1KU-Yp7v-100" style="edgeStyle=orthogonalEdgeStyle;rounded=0;orthogonalLoop=1;jettySize=auto;html=1;entryX=1;entryY=0.5;entryDx=0;entryDy=0;" parent="1" source="joKZxz_EQ2yr1KU-Yp7v-98" target="joKZxz_EQ2yr1KU-Yp7v-38" edge="1">
          <mxGeometry relative="1" as="geometry" />
        </mxCell>
        <mxCell id="joKZxz_EQ2yr1KU-Yp7v-98" value="&lt;h1&gt;Header&lt;/h1&gt;&lt;p&gt;La barre de navigation est dynamique.&lt;br&gt;- Un visiteur ne pourra voir que les éléments noir.&lt;br&gt;- Les employées de M. Parrot, auront les memes éléments que les visiteurs, avec un onglet en plus, &quot;Dashboard Employee&quot;.&lt;br&gt;- L&#39;Admin, Mr Parrot, aura quand a lui, la meme chose que les visiteurs, les employées ainsi que le &quot;Dashboard Admin&quot;.&lt;/p&gt;" style="text;html=1;strokeColor=none;fillColor=none;spacing=5;spacingTop=-20;whiteSpace=wrap;overflow=hidden;rounded=0;" parent="1" vertex="1">
          <mxGeometry x="-350" y="-530" width="190" height="230" as="geometry" />
        </mxCell>
        <mxCell id="joKZxz_EQ2yr1KU-Yp7v-102" style="edgeStyle=orthogonalEdgeStyle;rounded=0;orthogonalLoop=1;jettySize=auto;html=1;entryX=0;entryY=0.5;entryDx=0;entryDy=0;" parent="1" source="joKZxz_EQ2yr1KU-Yp7v-101" target="joKZxz_EQ2yr1KU-Yp7v-1" edge="1">
          <mxGeometry relative="1" as="geometry" />
        </mxCell>
        <mxCell id="joKZxz_EQ2yr1KU-Yp7v-103" style="edgeStyle=orthogonalEdgeStyle;rounded=0;orthogonalLoop=1;jettySize=auto;html=1;entryX=1;entryY=0.5;entryDx=0;entryDy=0;" parent="1" source="joKZxz_EQ2yr1KU-Yp7v-101" target="joKZxz_EQ2yr1KU-Yp7v-90" edge="1">
          <mxGeometry relative="1" as="geometry" />
        </mxCell>
        <mxCell id="joKZxz_EQ2yr1KU-Yp7v-101" value="&lt;h1&gt;&lt;span style=&quot;background-color: initial;&quot;&gt;Footer&lt;br&gt;&lt;/span&gt;&lt;span style=&quot;background-color: initial; font-size: 12px; font-weight: normal;&quot;&gt;- Le tableau des horaires est dynamiques, car Mr Parrot, a la possibilité de changer les horaires&lt;/span&gt;&lt;br&gt;&lt;/h1&gt;" style="text;html=1;strokeColor=none;fillColor=none;spacing=5;spacingTop=-20;whiteSpace=wrap;overflow=hidden;rounded=0;" parent="1" vertex="1">
          <mxGeometry x="-300" y="1150" width="190" height="140" as="geometry" />
        </mxCell>
        <mxCell id="joKZxz_EQ2yr1KU-Yp7v-105" value="" style="whiteSpace=wrap;html=1;rounded=0;shadow=0;labelBackgroundColor=none;strokeWidth=1;fillColor=none;fontFamily=Verdana;fontSize=12;align=center;comic=1;" parent="1" vertex="1">
          <mxGeometry x="130" y="-450" width="350" height="70" as="geometry" />
        </mxCell>
        <mxCell id="joKZxz_EQ2yr1KU-Yp7v-112" value="" style="whiteSpace=wrap;html=1;rounded=0;shadow=0;labelBackgroundColor=none;strokeWidth=1;fillColor=none;fontFamily=Verdana;fontSize=12;align=center;comic=1;" parent="1" vertex="1">
          <mxGeometry x="110" y="-340" width="910" height="300" as="geometry" />
        </mxCell>
        <mxCell id="joKZxz_EQ2yr1KU-Yp7v-113" value="&lt;h1&gt;Présentation de Mr Parrot et du garage&lt;br&gt;&lt;/h1&gt;&lt;p&gt;Lorem ipsum dolor sit amet, consectetur adipisicing elit, sed do eiusmod tempor incididunt ut labore et dolore magna aliqua.&lt;/p&gt;" style="text;html=1;strokeColor=none;fillColor=none;spacing=5;spacingTop=-20;whiteSpace=wrap;overflow=hidden;rounded=0;" parent="1" vertex="1">
          <mxGeometry x="120" y="-300" width="480" height="120" as="geometry" />
        </mxCell>
        <mxCell id="joKZxz_EQ2yr1KU-Yp7v-115" value="" style="whiteSpace=wrap;html=1;rounded=0;shadow=0;labelBackgroundColor=none;strokeWidth=1;fillColor=none;fontFamily=Verdana;fontSize=12;align=center;comic=1;" parent="1" vertex="1">
          <mxGeometry x="110" width="250" height="560" as="geometry" />
        </mxCell>
        <mxCell id="joKZxz_EQ2yr1KU-Yp7v-116" value="&lt;h1&gt;Nos services&lt;/h1&gt;&lt;p&gt;Lorem ipsum dolor sit amet, consectetur adipisicing elit, sed do eiusmod tempor incididunt ut labore et dolore magna aliqua.&lt;/p&gt;" style="text;html=1;strokeColor=none;fillColor=none;spacing=5;spacingTop=-20;whiteSpace=wrap;overflow=hidden;rounded=0;" parent="1" vertex="1">
          <mxGeometry x="140" y="25" width="190" height="400" as="geometry" />
        </mxCell>
        <mxCell id="joKZxz_EQ2yr1KU-Yp7v-117" value="Button Text" style="strokeWidth=1;shadow=0;dashed=0;align=center;html=1;shape=mxgraph.mockup.buttons.button;strokeColor=#666666;fontColor=#ffffff;mainText=;buttonStyle=round;fontSize=17;fontStyle=1;fillColor=#008cff;whiteSpace=wrap;" parent="1" vertex="1">
          <mxGeometry x="150" y="470" width="150" height="50" as="geometry" />
        </mxCell>
        <mxCell id="joKZxz_EQ2yr1KU-Yp7v-121" value="" style="whiteSpace=wrap;html=1;rounded=0;shadow=0;labelBackgroundColor=none;strokeWidth=1;fillColor=none;fontFamily=Verdana;fontSize=12;align=center;comic=1;" parent="1" vertex="1">
          <mxGeometry x="410" y="30" width="310" height="500" as="geometry" />
        </mxCell>
        <mxCell id="joKZxz_EQ2yr1KU-Yp7v-122" value="&lt;h1&gt;Véhicules d&#39;occasion&lt;/h1&gt;&lt;p&gt;Lorem ipsum dolor sit amet, consectetur adipisicing elit, sed do eiusmod tempor incididunt ut labore et dolore magna aliqua.&lt;/p&gt;" style="text;html=1;strokeColor=none;fillColor=none;spacing=5;spacingTop=-20;whiteSpace=wrap;overflow=hidden;rounded=0;" parent="1" vertex="1">
          <mxGeometry x="470" y="70" width="190" height="340" as="geometry" />
        </mxCell>
        <mxCell id="joKZxz_EQ2yr1KU-Yp7v-123" value="Button Text" style="strokeWidth=1;shadow=0;dashed=0;align=center;html=1;shape=mxgraph.mockup.buttons.button;strokeColor=#666666;fontColor=#ffffff;mainText=;buttonStyle=round;fontSize=17;fontStyle=1;fillColor=#008cff;whiteSpace=wrap;" parent="1" vertex="1">
          <mxGeometry x="480" y="430" width="150" height="60" as="geometry" />
        </mxCell>
        <mxCell id="joKZxz_EQ2yr1KU-Yp7v-124" value="" style="whiteSpace=wrap;html=1;rounded=0;shadow=0;labelBackgroundColor=none;strokeWidth=1;fillColor=none;fontFamily=Verdana;fontSize=12;align=center;comic=1;" parent="1" vertex="1">
          <mxGeometry x="760" width="250" height="560" as="geometry" />
        </mxCell>
        <mxCell id="joKZxz_EQ2yr1KU-Yp7v-125" value="&lt;h1&gt;Nous contacter&lt;/h1&gt;&lt;p&gt;Lorem ipsum dolor sit amet, consectetur adipisicing elit, sed do eiusmod tempor incididunt ut labore et dolore magna aliqua.&lt;/p&gt;" style="text;html=1;strokeColor=none;fillColor=none;spacing=5;spacingTop=-20;whiteSpace=wrap;overflow=hidden;rounded=0;" parent="1" vertex="1">
          <mxGeometry x="790" y="60" width="190" height="120" as="geometry" />
        </mxCell>
        <mxCell id="joKZxz_EQ2yr1KU-Yp7v-126" value="Button Text" style="strokeWidth=1;shadow=0;dashed=0;align=center;html=1;shape=mxgraph.mockup.buttons.button;strokeColor=#666666;fontColor=#ffffff;mainText=;buttonStyle=round;fontSize=17;fontStyle=1;fillColor=#008cff;whiteSpace=wrap;" parent="1" vertex="1">
          <mxGeometry x="810" y="470" width="150" height="50" as="geometry" />
        </mxCell>
        <mxCell id="joKZxz_EQ2yr1KU-Yp7v-130" value="" style="whiteSpace=wrap;html=1;rounded=0;shadow=0;labelBackgroundColor=none;strokeWidth=1;fillColor=none;fontFamily=Verdana;fontSize=12;align=center;comic=1;" parent="1" vertex="1">
          <mxGeometry x="440" y="630" width="180" height="220" as="geometry" />
        </mxCell>
        <mxCell id="joKZxz_EQ2yr1KU-Yp7v-131" value="&lt;h1&gt;Témoignage&lt;/h1&gt;&lt;p&gt;Lorem ipsum dolor sit amet, consectetur adipisicing elit, sed do eiusmod tempor incididunt ut labore et dolore magna aliqua.&lt;/p&gt;" style="text;html=1;strokeColor=none;fillColor=none;spacing=5;spacingTop=-20;whiteSpace=wrap;overflow=hidden;rounded=0;" parent="1" vertex="1">
          <mxGeometry x="455.5" y="650" width="150" height="120" as="geometry" />
        </mxCell>
        <mxCell id="joKZxz_EQ2yr1KU-Yp7v-132" value="Button Text" style="strokeWidth=1;shadow=0;dashed=0;align=center;html=1;shape=mxgraph.mockup.buttons.button;strokeColor=#666666;fontColor=#ffffff;mainText=;buttonStyle=round;fontSize=17;fontStyle=1;fillColor=#008cff;whiteSpace=wrap;" parent="1" vertex="1">
          <mxGeometry x="455.5" y="790" width="150" height="50" as="geometry" />
        </mxCell>
        <mxCell id="joKZxz_EQ2yr1KU-Yp7v-137" value="" style="shape=mxgraph.mockup.containers.marginRect;rectMarginTop=10;strokeColor=#666666;strokeWidth=1;dashed=0;rounded=1;arcSize=5;recursiveResize=0;html=1;whiteSpace=wrap;" parent="1" vertex="1">
          <mxGeometry x="95" y="670" width="150" height="140" as="geometry" />
        </mxCell>
        <mxCell id="joKZxz_EQ2yr1KU-Yp7v-138" value="Avis 1&amp;nbsp;" style="shape=rect;strokeColor=none;fillColor=#008cff;strokeWidth=1;dashed=0;rounded=1;arcSize=20;fontColor=#ffffff;fontSize=17;spacing=2;spacingTop=-2;align=left;autosize=1;spacingLeft=4;resizeWidth=0;resizeHeight=0;perimeter=none;html=1;whiteSpace=wrap;" parent="joKZxz_EQ2yr1KU-Yp7v-137" vertex="1">
          <mxGeometry x="5" width="80" height="30" as="geometry" />
        </mxCell>
        <mxCell id="joKZxz_EQ2yr1KU-Yp7v-139" value="" style="shape=mxgraph.mockup.containers.marginRect;rectMarginTop=10;strokeColor=#666666;strokeWidth=1;dashed=0;rounded=1;arcSize=5;recursiveResize=0;html=1;whiteSpace=wrap;" parent="1" vertex="1">
          <mxGeometry x="270" y="670" width="150" height="140" as="geometry" />
        </mxCell>
        <mxCell id="joKZxz_EQ2yr1KU-Yp7v-140" value="Avis 2" style="shape=rect;strokeColor=none;fillColor=#008cff;strokeWidth=1;dashed=0;rounded=1;arcSize=20;fontColor=#ffffff;fontSize=17;spacing=2;spacingTop=-2;align=left;autosize=1;spacingLeft=4;resizeWidth=0;resizeHeight=0;perimeter=none;html=1;whiteSpace=wrap;" parent="joKZxz_EQ2yr1KU-Yp7v-139" vertex="1">
          <mxGeometry x="5" width="70" height="30" as="geometry" />
        </mxCell>
        <mxCell id="joKZxz_EQ2yr1KU-Yp7v-141" value="" style="shape=mxgraph.mockup.containers.marginRect;rectMarginTop=10;strokeColor=#666666;strokeWidth=1;dashed=0;rounded=1;arcSize=5;recursiveResize=0;html=1;whiteSpace=wrap;" parent="1" vertex="1">
          <mxGeometry x="650" y="670" width="150" height="140" as="geometry" />
        </mxCell>
        <mxCell id="joKZxz_EQ2yr1KU-Yp7v-142" value="Avis 3" style="shape=rect;strokeColor=none;fillColor=#008cff;strokeWidth=1;dashed=0;rounded=1;arcSize=20;fontColor=#ffffff;fontSize=17;spacing=2;spacingTop=-2;align=left;autosize=1;spacingLeft=4;resizeWidth=0;resizeHeight=0;perimeter=none;html=1;whiteSpace=wrap;" parent="joKZxz_EQ2yr1KU-Yp7v-141" vertex="1">
          <mxGeometry x="5" width="70" height="30" as="geometry" />
        </mxCell>
        <mxCell id="joKZxz_EQ2yr1KU-Yp7v-143" value="" style="shape=mxgraph.mockup.containers.marginRect;rectMarginTop=10;strokeColor=#666666;strokeWidth=1;dashed=0;rounded=1;arcSize=5;recursiveResize=0;html=1;whiteSpace=wrap;" parent="1" vertex="1">
          <mxGeometry x="850" y="670" width="150" height="140" as="geometry" />
        </mxCell>
        <mxCell id="joKZxz_EQ2yr1KU-Yp7v-144" value="Avis 4" style="shape=rect;strokeColor=none;fillColor=#008cff;strokeWidth=1;dashed=0;rounded=1;arcSize=20;fontColor=#ffffff;fontSize=17;spacing=2;spacingTop=-2;align=left;autosize=1;spacingLeft=4;resizeWidth=0;resizeHeight=0;perimeter=none;html=1;whiteSpace=wrap;" parent="joKZxz_EQ2yr1KU-Yp7v-143" vertex="1">
          <mxGeometry x="5" width="70" height="30" as="geometry" />
        </mxCell>
        <mxCell id="joKZxz_EQ2yr1KU-Yp7v-145" value="&lt;font style=&quot;font-size: 26px;&quot;&gt;Acceuil&lt;/font&gt;" style="text;html=1;strokeColor=#666666;fillColor=#f5f5f5;align=center;verticalAlign=middle;whiteSpace=wrap;rounded=0;fontColor=#333333;" parent="1" vertex="1">
          <mxGeometry x="-115" y="-1000" width="210" height="80" as="geometry" />
        </mxCell>
        <mxCell id="joKZxz_EQ2yr1KU-Yp7v-146" value="&lt;font style=&quot;font-size: 26px;&quot;&gt;Services&lt;/font&gt;" style="text;html=1;strokeColor=#666666;fillColor=#f5f5f5;align=center;verticalAlign=middle;whiteSpace=wrap;rounded=0;fontColor=#333333;" parent="1" vertex="1">
          <mxGeometry x="-100" y="2085" width="210" height="80" as="geometry" />
        </mxCell>
        <mxCell id="joKZxz_EQ2yr1KU-Yp7v-147" value="" style="whiteSpace=wrap;html=1;rounded=0;shadow=0;labelBackgroundColor=none;strokeWidth=1;fontFamily=Verdana;fontSize=12;align=center;comic=1;" parent="1" vertex="1">
          <mxGeometry x="-955" y="2280" width="410" height="1040" as="geometry" />
        </mxCell>
        <mxCell id="joKZxz_EQ2yr1KU-Yp7v-148" value="Services" style="whiteSpace=wrap;html=1;rounded=0;shadow=0;labelBackgroundColor=none;strokeWidth=1;fillColor=none;fontFamily=Verdana;fontSize=12;align=center;comic=1;" parent="1" vertex="1">
          <mxGeometry x="-930" y="2320" width="220" height="40" as="geometry" />
        </mxCell>
        <mxCell id="joKZxz_EQ2yr1KU-Yp7v-149" value="" style="whiteSpace=wrap;html=1;rounded=0;shadow=0;labelBackgroundColor=none;strokeWidth=1;fontFamily=Verdana;fontSize=12;align=center;comic=1;" parent="1" vertex="1">
          <mxGeometry x="80" y="2280" width="960" height="1080" as="geometry" />
        </mxCell>
        <mxCell id="joKZxz_EQ2yr1KU-Yp7v-150" value="Services" style="whiteSpace=wrap;html=1;rounded=0;shadow=0;labelBackgroundColor=none;strokeWidth=1;fillColor=none;fontFamily=Verdana;fontSize=12;align=center;comic=1;" parent="1" vertex="1">
          <mxGeometry x="150" y="2320" width="220" height="40" as="geometry" />
        </mxCell>
        <mxCell id="u0NLdab73G7xsdPlaEeC-1" value="" style="verticalLabelPosition=bottom;shadow=0;dashed=0;align=center;html=1;verticalAlign=top;strokeWidth=1;shape=mxgraph.mockup.misc.map;" parent="1" vertex="1">
          <mxGeometry x="160" y="1160" width="420" height="190" as="geometry" />
        </mxCell>
        <mxCell id="u0NLdab73G7xsdPlaEeC-2" value="" style="verticalLabelPosition=bottom;shadow=0;dashed=0;align=center;html=1;verticalAlign=top;strokeWidth=1;shape=mxgraph.mockup.graphics.simpleIcon;strokeColor=#999999;" parent="1" vertex="1">
          <mxGeometry x="115" y="2410" width="870" height="860" as="geometry" />
        </mxCell>
        <mxCell id="u0NLdab73G7xsdPlaEeC-4" value="" style="strokeWidth=1;shadow=0;dashed=0;align=center;html=1;shape=mxgraph.mockup.rrect;rSize=10;strokeColor=#666666;" parent="1" vertex="1">
          <mxGeometry x="160" y="2470" width="120" height="200" as="geometry" />
        </mxCell>
        <mxCell id="u0NLdab73G7xsdPlaEeC-5" value="Carrosserie" style="strokeColor=inherit;fillColor=inherit;gradientColor=inherit;strokeWidth=1;shadow=0;dashed=0;align=center;html=1;shape=mxgraph.mockup.rrect;rSize=0;fontSize=17;fontColor=#666666;fontStyle=1;resizeWidth=1;whiteSpace=wrap;" parent="u0NLdab73G7xsdPlaEeC-4" vertex="1">
          <mxGeometry width="120" height="50" relative="1" as="geometry">
            <mxPoint y="50" as="offset" />
          </mxGeometry>
        </mxCell>
        <mxCell id="u0NLdab73G7xsdPlaEeC-6" value="Maintenance" style="strokeColor=inherit;fillColor=inherit;gradientColor=inherit;strokeWidth=1;shadow=0;dashed=0;align=center;html=1;shape=mxgraph.mockup.rrect;rSize=0;fontSize=17;fontColor=#666666;fontStyle=1;resizeWidth=1;whiteSpace=wrap;" parent="u0NLdab73G7xsdPlaEeC-4" vertex="1">
          <mxGeometry width="120" height="50" relative="1" as="geometry">
            <mxPoint y="100" as="offset" />
          </mxGeometry>
        </mxCell>
        <mxCell id="u0NLdab73G7xsdPlaEeC-7" value="Autres" style="strokeColor=inherit;fillColor=inherit;gradientColor=inherit;strokeWidth=1;shadow=0;dashed=0;align=center;html=1;shape=mxgraph.mockup.bottomButton;rSize=10;fontSize=17;fontColor=#666666;fontStyle=1;resizeWidth=1;whiteSpace=wrap;" parent="u0NLdab73G7xsdPlaEeC-4" vertex="1">
          <mxGeometry y="1" width="120" height="50" relative="1" as="geometry">
            <mxPoint y="-50" as="offset" />
          </mxGeometry>
        </mxCell>
        <mxCell id="u0NLdab73G7xsdPlaEeC-8" value="Mécanique" style="strokeWidth=1;shadow=0;dashed=0;align=center;html=1;shape=mxgraph.mockup.topButton;rSize=10;fontSize=17;fontColor=#ffffff;fontStyle=1;fillColor=#008cff;strokeColor=#008cff;resizeWidth=1;whiteSpace=wrap;" parent="u0NLdab73G7xsdPlaEeC-4" vertex="1">
          <mxGeometry width="120" height="50" relative="1" as="geometry" />
        </mxCell>
        <mxCell id="u0NLdab73G7xsdPlaEeC-9" value="Services concerné" style="shape=table;startSize=30;container=1;collapsible=0;childLayout=tableLayout;fixedRows=1;rowLines=0;fontStyle=0;strokeColor=default;fontSize=16;" parent="1" vertex="1">
          <mxGeometry x="350" y="2620" width="450" height="500" as="geometry" />
        </mxCell>
        <mxCell id="u0NLdab73G7xsdPlaEeC-10" value="" style="shape=tableRow;horizontal=0;startSize=0;swimlaneHead=0;swimlaneBody=0;top=0;left=0;bottom=0;right=0;collapsible=0;dropTarget=0;fillColor=none;points=[[0,0.5],[1,0.5]];portConstraint=eastwest;strokeColor=inherit;fontSize=16;" parent="u0NLdab73G7xsdPlaEeC-9" vertex="1">
          <mxGeometry y="30" width="450" height="30" as="geometry" />
        </mxCell>
        <mxCell id="u0NLdab73G7xsdPlaEeC-11" value="1" style="shape=partialRectangle;html=1;whiteSpace=wrap;connectable=0;fillColor=none;top=0;left=0;bottom=0;right=0;overflow=hidden;pointerEvents=1;strokeColor=inherit;fontSize=16;" parent="u0NLdab73G7xsdPlaEeC-10" vertex="1">
          <mxGeometry width="63" height="30" as="geometry">
            <mxRectangle width="63" height="30" as="alternateBounds" />
          </mxGeometry>
        </mxCell>
        <mxCell id="u0NLdab73G7xsdPlaEeC-12" value="Value 1" style="shape=partialRectangle;html=1;whiteSpace=wrap;connectable=0;fillColor=none;top=0;left=0;bottom=0;right=0;align=left;spacingLeft=6;overflow=hidden;strokeColor=inherit;fontSize=16;" parent="u0NLdab73G7xsdPlaEeC-10" vertex="1">
          <mxGeometry x="63" width="387" height="30" as="geometry">
            <mxRectangle width="387" height="30" as="alternateBounds" />
          </mxGeometry>
        </mxCell>
        <mxCell id="u0NLdab73G7xsdPlaEeC-13" value="" style="shape=tableRow;horizontal=0;startSize=0;swimlaneHead=0;swimlaneBody=0;top=0;left=0;bottom=0;right=0;collapsible=0;dropTarget=0;fillColor=none;points=[[0,0.5],[1,0.5]];portConstraint=eastwest;strokeColor=inherit;fontSize=16;" parent="u0NLdab73G7xsdPlaEeC-9" vertex="1">
          <mxGeometry y="60" width="450" height="30" as="geometry" />
        </mxCell>
        <mxCell id="u0NLdab73G7xsdPlaEeC-14" value="2" style="shape=partialRectangle;html=1;whiteSpace=wrap;connectable=0;fillColor=none;top=0;left=0;bottom=0;right=0;overflow=hidden;strokeColor=inherit;fontSize=16;" parent="u0NLdab73G7xsdPlaEeC-13" vertex="1">
          <mxGeometry width="63" height="30" as="geometry">
            <mxRectangle width="63" height="30" as="alternateBounds" />
          </mxGeometry>
        </mxCell>
        <mxCell id="u0NLdab73G7xsdPlaEeC-15" value="Value 2" style="shape=partialRectangle;html=1;whiteSpace=wrap;connectable=0;fillColor=none;top=0;left=0;bottom=0;right=0;align=left;spacingLeft=6;overflow=hidden;strokeColor=inherit;fontSize=16;" parent="u0NLdab73G7xsdPlaEeC-13" vertex="1">
          <mxGeometry x="63" width="387" height="30" as="geometry">
            <mxRectangle width="387" height="30" as="alternateBounds" />
          </mxGeometry>
        </mxCell>
        <mxCell id="u0NLdab73G7xsdPlaEeC-16" value="" style="shape=tableRow;horizontal=0;startSize=0;swimlaneHead=0;swimlaneBody=0;top=0;left=0;bottom=0;right=0;collapsible=0;dropTarget=0;fillColor=none;points=[[0,0.5],[1,0.5]];portConstraint=eastwest;strokeColor=inherit;fontSize=16;" parent="u0NLdab73G7xsdPlaEeC-9" vertex="1">
          <mxGeometry y="90" width="450" height="30" as="geometry" />
        </mxCell>
        <mxCell id="u0NLdab73G7xsdPlaEeC-17" value="3" style="shape=partialRectangle;html=1;whiteSpace=wrap;connectable=0;fillColor=none;top=0;left=0;bottom=0;right=0;overflow=hidden;strokeColor=inherit;fontSize=16;" parent="u0NLdab73G7xsdPlaEeC-16" vertex="1">
          <mxGeometry width="63" height="30" as="geometry">
            <mxRectangle width="63" height="30" as="alternateBounds" />
          </mxGeometry>
        </mxCell>
        <mxCell id="u0NLdab73G7xsdPlaEeC-18" value="Value 3" style="shape=partialRectangle;html=1;whiteSpace=wrap;connectable=0;fillColor=none;top=0;left=0;bottom=0;right=0;align=left;spacingLeft=6;overflow=hidden;strokeColor=inherit;fontSize=16;" parent="u0NLdab73G7xsdPlaEeC-16" vertex="1">
          <mxGeometry x="63" width="387" height="30" as="geometry">
            <mxRectangle width="387" height="30" as="alternateBounds" />
          </mxGeometry>
        </mxCell>
        <mxCell id="u0NLdab73G7xsdPlaEeC-19" value="&lt;h1 style=&quot;border-color: var(--border-color);&quot;&gt;Accueil&lt;br style=&quot;border-color: var(--border-color);&quot;&gt;&lt;/h1&gt;&lt;h1&gt;&lt;p style=&quot;border-color: var(--border-color); font-size: 12px; font-weight: 400;&quot;&gt;Lorem ipsum dolor sit amet, consectetur adipisicing elit, sed do eiusmod tempor incididunt ut labore et dolore magna aliqua.&lt;/p&gt;&lt;/h1&gt;" style="text;html=1;strokeColor=none;fillColor=none;spacing=5;spacingTop=-20;whiteSpace=wrap;overflow=hidden;rounded=0;" parent="1" vertex="1">
          <mxGeometry x="130" y="-450" width="350" height="70" as="geometry" />
        </mxCell>
        <mxCell id="u0NLdab73G7xsdPlaEeC-20" value="&lt;h1 style=&quot;border-color: var(--border-color); color: rgb(0, 0, 0); font-family: Helvetica; font-style: normal; font-variant-ligatures: normal; font-variant-caps: normal; letter-spacing: normal; orphans: 2; text-align: left; text-indent: 0px; text-transform: none; widows: 2; word-spacing: 0px; -webkit-text-stroke-width: 0px; background-color: rgb(251, 251, 251); text-decoration-thickness: initial; text-decoration-style: initial; text-decoration-color: initial;&quot;&gt;&lt;font style=&quot;font-size: 10px;&quot;&gt;Accueil&lt;br style=&quot;border-color: var(--border-color);&quot;&gt;&lt;/font&gt;&lt;/h1&gt;&lt;p style=&quot;border-color: var(--border-color); color: rgb(0, 0, 0); font-family: Helvetica; font-style: normal; font-variant-ligatures: normal; font-variant-caps: normal; font-weight: 400; letter-spacing: normal; orphans: 2; text-align: left; text-indent: 0px; text-transform: none; widows: 2; word-spacing: 0px; -webkit-text-stroke-width: 0px; background-color: rgb(251, 251, 251); text-decoration-thickness: initial; text-decoration-style: initial; text-decoration-color: initial;&quot;&gt;&lt;font style=&quot;font-size: 8px;&quot;&gt;Lorem ipsum dolor sit amet, consectetur adipisicing elit, sed do eiusmod tempor incididunt ut labore et dolore magna aliqua.&lt;/font&gt;&lt;/p&gt;" style="text;whiteSpace=wrap;html=1;" parent="1" vertex="1">
          <mxGeometry x="-950" y="-230" width="280" height="60" as="geometry" />
        </mxCell>
        <mxCell id="u0NLdab73G7xsdPlaEeC-26" value="" style="strokeWidth=1;shadow=0;dashed=0;align=center;html=1;shape=mxgraph.mockup.rrect;rSize=10;fillColor=#ffffff;strokeColor=#666666;" parent="1" vertex="1">
          <mxGeometry x="-950" y="2380" width="400" height="60" as="geometry" />
        </mxCell>
        <mxCell id="u0NLdab73G7xsdPlaEeC-27" value="Carrosserie" style="strokeColor=inherit;fillColor=inherit;gradientColor=inherit;strokeWidth=1;shadow=0;dashed=0;align=center;html=1;shape=mxgraph.mockup.rrect;rSize=0;fontSize=17;fontColor=#666666;fontStyle=1;resizeHeight=1;whiteSpace=wrap;" parent="u0NLdab73G7xsdPlaEeC-26" vertex="1">
          <mxGeometry width="100" height="60" relative="1" as="geometry">
            <mxPoint x="90" as="offset" />
          </mxGeometry>
        </mxCell>
        <mxCell id="u0NLdab73G7xsdPlaEeC-28" value="Maintenance" style="strokeColor=inherit;fillColor=inherit;gradientColor=inherit;strokeWidth=1;shadow=0;dashed=0;align=center;html=1;shape=mxgraph.mockup.rrect;rSize=0;fontSize=17;fontColor=#666666;fontStyle=1;resizeHeight=1;whiteSpace=wrap;" parent="u0NLdab73G7xsdPlaEeC-26" vertex="1">
          <mxGeometry width="110" height="60" relative="1" as="geometry">
            <mxPoint x="190" as="offset" />
          </mxGeometry>
        </mxCell>
        <mxCell id="u0NLdab73G7xsdPlaEeC-29" value="Autres" style="strokeColor=inherit;fillColor=inherit;gradientColor=inherit;strokeWidth=1;shadow=0;dashed=0;align=center;html=1;shape=mxgraph.mockup.rightButton;rSize=10;fontSize=17;fontColor=#666666;fontStyle=1;resizeHeight=1;whiteSpace=wrap;" parent="u0NLdab73G7xsdPlaEeC-26" vertex="1">
          <mxGeometry x="1" width="100" height="60" relative="1" as="geometry">
            <mxPoint x="-100" as="offset" />
          </mxGeometry>
        </mxCell>
        <mxCell id="u0NLdab73G7xsdPlaEeC-30" value="Mécanique" style="strokeWidth=1;shadow=0;dashed=0;align=center;html=1;shape=mxgraph.mockup.leftButton;rSize=10;fontSize=17;fontColor=#ffffff;fontStyle=1;fillColor=#008cff;strokeColor=#008cff;resizeHeight=1;whiteSpace=wrap;" parent="u0NLdab73G7xsdPlaEeC-26" vertex="1">
          <mxGeometry width="90" height="60" relative="1" as="geometry" />
        </mxCell>
        <mxCell id="u0NLdab73G7xsdPlaEeC-31" value="Services concerné" style="shape=table;startSize=30;container=1;collapsible=0;childLayout=tableLayout;fixedRows=1;rowLines=0;fontStyle=0;strokeColor=default;fontSize=16;" parent="1" vertex="1">
          <mxGeometry x="-945" y="2490" width="390" height="800" as="geometry" />
        </mxCell>
        <mxCell id="u0NLdab73G7xsdPlaEeC-32" value="" style="shape=tableRow;horizontal=0;startSize=0;swimlaneHead=0;swimlaneBody=0;top=0;left=0;bottom=0;right=0;collapsible=0;dropTarget=0;fillColor=none;points=[[0,0.5],[1,0.5]];portConstraint=eastwest;strokeColor=inherit;fontSize=16;" parent="u0NLdab73G7xsdPlaEeC-31" vertex="1">
          <mxGeometry y="30" width="390" height="30" as="geometry" />
        </mxCell>
        <mxCell id="u0NLdab73G7xsdPlaEeC-33" value="1" style="shape=partialRectangle;html=1;whiteSpace=wrap;connectable=0;fillColor=none;top=0;left=0;bottom=0;right=0;overflow=hidden;pointerEvents=1;strokeColor=inherit;fontSize=16;" parent="u0NLdab73G7xsdPlaEeC-32" vertex="1">
          <mxGeometry width="55" height="30" as="geometry">
            <mxRectangle width="55" height="30" as="alternateBounds" />
          </mxGeometry>
        </mxCell>
        <mxCell id="u0NLdab73G7xsdPlaEeC-34" value="Value 1" style="shape=partialRectangle;html=1;whiteSpace=wrap;connectable=0;fillColor=none;top=0;left=0;bottom=0;right=0;align=left;spacingLeft=6;overflow=hidden;strokeColor=inherit;fontSize=16;" parent="u0NLdab73G7xsdPlaEeC-32" vertex="1">
          <mxGeometry x="55" width="335" height="30" as="geometry">
            <mxRectangle width="335" height="30" as="alternateBounds" />
          </mxGeometry>
        </mxCell>
        <mxCell id="u0NLdab73G7xsdPlaEeC-35" value="" style="shape=tableRow;horizontal=0;startSize=0;swimlaneHead=0;swimlaneBody=0;top=0;left=0;bottom=0;right=0;collapsible=0;dropTarget=0;fillColor=none;points=[[0,0.5],[1,0.5]];portConstraint=eastwest;strokeColor=inherit;fontSize=16;" parent="u0NLdab73G7xsdPlaEeC-31" vertex="1">
          <mxGeometry y="60" width="390" height="30" as="geometry" />
        </mxCell>
        <mxCell id="u0NLdab73G7xsdPlaEeC-36" value="2" style="shape=partialRectangle;html=1;whiteSpace=wrap;connectable=0;fillColor=none;top=0;left=0;bottom=0;right=0;overflow=hidden;strokeColor=inherit;fontSize=16;" parent="u0NLdab73G7xsdPlaEeC-35" vertex="1">
          <mxGeometry width="55" height="30" as="geometry">
            <mxRectangle width="55" height="30" as="alternateBounds" />
          </mxGeometry>
        </mxCell>
        <mxCell id="u0NLdab73G7xsdPlaEeC-37" value="Value 2" style="shape=partialRectangle;html=1;whiteSpace=wrap;connectable=0;fillColor=none;top=0;left=0;bottom=0;right=0;align=left;spacingLeft=6;overflow=hidden;strokeColor=inherit;fontSize=16;" parent="u0NLdab73G7xsdPlaEeC-35" vertex="1">
          <mxGeometry x="55" width="335" height="30" as="geometry">
            <mxRectangle width="335" height="30" as="alternateBounds" />
          </mxGeometry>
        </mxCell>
        <mxCell id="u0NLdab73G7xsdPlaEeC-38" value="" style="shape=tableRow;horizontal=0;startSize=0;swimlaneHead=0;swimlaneBody=0;top=0;left=0;bottom=0;right=0;collapsible=0;dropTarget=0;fillColor=none;points=[[0,0.5],[1,0.5]];portConstraint=eastwest;strokeColor=inherit;fontSize=16;" parent="u0NLdab73G7xsdPlaEeC-31" vertex="1">
          <mxGeometry y="90" width="390" height="30" as="geometry" />
        </mxCell>
        <mxCell id="u0NLdab73G7xsdPlaEeC-39" value="3" style="shape=partialRectangle;html=1;whiteSpace=wrap;connectable=0;fillColor=none;top=0;left=0;bottom=0;right=0;overflow=hidden;strokeColor=inherit;fontSize=16;" parent="u0NLdab73G7xsdPlaEeC-38" vertex="1">
          <mxGeometry width="55" height="30" as="geometry">
            <mxRectangle width="55" height="30" as="alternateBounds" />
          </mxGeometry>
        </mxCell>
        <mxCell id="u0NLdab73G7xsdPlaEeC-40" value="Value 3" style="shape=partialRectangle;html=1;whiteSpace=wrap;connectable=0;fillColor=none;top=0;left=0;bottom=0;right=0;align=left;spacingLeft=6;overflow=hidden;strokeColor=inherit;fontSize=16;" parent="u0NLdab73G7xsdPlaEeC-38" vertex="1">
          <mxGeometry x="55" width="335" height="30" as="geometry">
            <mxRectangle width="335" height="30" as="alternateBounds" />
          </mxGeometry>
        </mxCell>
        <mxCell id="u0NLdab73G7xsdPlaEeC-41" value="&lt;font style=&quot;font-size: 26px;&quot;&gt;Véhicules d&#39;occasion&lt;/font&gt;" style="text;html=1;strokeColor=#666666;fillColor=#f5f5f5;align=center;verticalAlign=middle;whiteSpace=wrap;rounded=0;fontColor=#333333;" parent="1" vertex="1">
          <mxGeometry x="-120" y="3860" width="210" height="80" as="geometry" />
        </mxCell>
        <mxCell id="u0NLdab73G7xsdPlaEeC-42" value="" style="line;strokeWidth=1;html=1;rounded=0;shadow=0;labelBackgroundColor=none;fillColor=none;fontFamily=Verdana;fontSize=14;fontColor=#000000;align=center;comic=1;" parent="1" vertex="1">
          <mxGeometry x="25" y="2040" width="1060" height="10" as="geometry" />
        </mxCell>
        <mxCell id="u0NLdab73G7xsdPlaEeC-43" value="" style="line;strokeWidth=1;html=1;rounded=0;shadow=0;labelBackgroundColor=none;fillColor=none;fontFamily=Verdana;fontSize=14;fontColor=#000000;align=center;comic=1;" parent="1" vertex="1">
          <mxGeometry x="-1090" y="2040" width="1060" height="10" as="geometry" />
        </mxCell>
        <mxCell id="u0NLdab73G7xsdPlaEeC-44" value="" style="line;strokeWidth=1;html=1;rounded=0;shadow=0;labelBackgroundColor=none;fillColor=none;fontFamily=Verdana;fontSize=14;fontColor=#000000;align=center;comic=1;" parent="1" vertex="1">
          <mxGeometry x="10" y="3480" width="1060" height="10" as="geometry" />
        </mxCell>
        <mxCell id="u0NLdab73G7xsdPlaEeC-45" value="" style="line;strokeWidth=1;html=1;rounded=0;shadow=0;labelBackgroundColor=none;fillColor=none;fontFamily=Verdana;fontSize=14;fontColor=#000000;align=center;comic=1;" parent="1" vertex="1">
          <mxGeometry x="-1090" y="3480" width="1060" height="10" as="geometry" />
        </mxCell>
        <mxCell id="u0NLdab73G7xsdPlaEeC-46" value="" style="line;strokeWidth=1;html=1;rounded=0;shadow=0;labelBackgroundColor=none;fillColor=none;fontFamily=Verdana;fontSize=14;fontColor=#000000;align=center;comic=1;" parent="1" vertex="1">
          <mxGeometry x="10" y="3710" width="1060" height="10" as="geometry" />
        </mxCell>
        <mxCell id="u0NLdab73G7xsdPlaEeC-47" value="" style="line;strokeWidth=1;html=1;rounded=0;shadow=0;labelBackgroundColor=none;fillColor=none;fontFamily=Verdana;fontSize=14;fontColor=#000000;align=center;comic=1;" parent="1" vertex="1">
          <mxGeometry x="-1070" y="3710" width="1060" height="10" as="geometry" />
        </mxCell>
        <mxCell id="u0NLdab73G7xsdPlaEeC-48" value="" style="whiteSpace=wrap;html=1;rounded=0;shadow=0;labelBackgroundColor=none;strokeWidth=1;fontFamily=Verdana;fontSize=12;align=center;comic=1;" parent="1" vertex="1">
          <mxGeometry x="50" y="4120" width="960" height="1080" as="geometry" />
        </mxCell>
        <mxCell id="u0NLdab73G7xsdPlaEeC-49" value="Véhicule d&#39;occasion" style="whiteSpace=wrap;html=1;rounded=0;shadow=0;labelBackgroundColor=none;strokeWidth=1;fillColor=none;fontFamily=Verdana;fontSize=12;align=center;comic=1;" parent="1" vertex="1">
          <mxGeometry x="120" y="4160" width="220" height="40" as="geometry" />
        </mxCell>
        <mxCell id="u0NLdab73G7xsdPlaEeC-50" value="" style="whiteSpace=wrap;html=1;rounded=0;shadow=0;labelBackgroundColor=none;strokeWidth=1;fontFamily=Verdana;fontSize=12;align=center;comic=1;" parent="1" vertex="1">
          <mxGeometry x="-820" y="4120" width="410" height="1440" as="geometry" />
        </mxCell>
        <mxCell id="u0NLdab73G7xsdPlaEeC-51" value="Véhicule d&#39;occasion" style="whiteSpace=wrap;html=1;rounded=0;shadow=0;labelBackgroundColor=none;strokeWidth=1;fillColor=none;fontFamily=Verdana;fontSize=12;align=center;comic=1;" parent="1" vertex="1">
          <mxGeometry x="-795" y="4160" width="220" height="40" as="geometry" />
        </mxCell>
        <mxCell id="u0NLdab73G7xsdPlaEeC-52" value="" style="html=1;shadow=0;dashed=0;shape=mxgraph.bootstrap.rrect;rSize=5;strokeColor=#DFDFDF;html=1;whiteSpace=wrap;fillColor=#ffffff;" parent="1" vertex="1">
          <mxGeometry x="130" y="4320" width="780" height="360" as="geometry" />
        </mxCell>
        <mxCell id="u0NLdab73G7xsdPlaEeC-53" value="&lt;b&gt;&lt;font style=&quot;font-size: 20px&quot;&gt;Card title&lt;/font&gt;&lt;/b&gt;&lt;br&gt;&lt;br&gt;This is a wider card with supporting text below as a natural lead-in to additional content. This content is a little bit longer.&lt;br&gt;&lt;br&gt;&lt;font color=&quot;#999999&quot; style=&quot;font-size: 12px&quot;&gt;Last udated 3 mind ago&lt;/font&gt;" style="html=1;shadow=0;dashed=0;shape=mxgraph.bootstrap.leftButton;rSize=5;strokeColor=#DFDFDF;html=1;whiteSpace=wrap;fillColor=#ffffff;fontColor=#000000;verticalAlign=top;align=left;spacing=20;spacingBottom=0;fontSize=14;spacingTop=160;" parent="u0NLdab73G7xsdPlaEeC-52" vertex="1">
          <mxGeometry width="260" height="360" relative="1" as="geometry" />
        </mxCell>
        <mxCell id="u0NLdab73G7xsdPlaEeC-54" value="Image cap" style="html=1;shadow=0;dashed=0;shape=mxgraph.basic.corner_round_rect;dx=2;perimeter=none;whiteSpace=wrap;fillColor=#868E96;strokeColor=#DFDFDF;fontColor=#DEE2E6;resizeWidth=1;fontSize=18;" parent="u0NLdab73G7xsdPlaEeC-53" vertex="1">
          <mxGeometry width="260" height="160" relative="1" as="geometry" />
        </mxCell>
        <mxCell id="u0NLdab73G7xsdPlaEeC-55" value="&lt;b&gt;&lt;font style=&quot;font-size: 20px&quot;&gt;Card title&lt;/font&gt;&lt;/b&gt;&lt;br&gt;&lt;br&gt;This card has supporting text below as a natural lead-in to additional content.&lt;br&gt;&lt;br&gt;&lt;font color=&quot;#999999&quot; style=&quot;font-size: 12px&quot;&gt;Last udated 3 mind ago&lt;/font&gt;" style="html=1;shadow=0;dashed=0;strokeColor=#DFDFDF;html=1;whiteSpace=wrap;fillColor=#ffffff;fontColor=#000000;verticalAlign=top;align=left;spacing=20;spacingBottom=0;fontSize=14;spacingTop=160;" parent="u0NLdab73G7xsdPlaEeC-52" vertex="1">
          <mxGeometry width="260" height="360" relative="1" as="geometry">
            <mxPoint x="260" as="offset" />
          </mxGeometry>
        </mxCell>
        <mxCell id="u0NLdab73G7xsdPlaEeC-56" value="Image cap" style="html=1;shadow=0;dashed=0;perimeter=none;whiteSpace=wrap;fillColor=#868E96;strokeColor=#DFDFDF;fontColor=#DEE2E6;resizeWidth=1;fontSize=18;" parent="u0NLdab73G7xsdPlaEeC-55" vertex="1">
          <mxGeometry width="260" height="160" relative="1" as="geometry" />
        </mxCell>
        <mxCell id="u0NLdab73G7xsdPlaEeC-57" value="&lt;b&gt;&lt;font style=&quot;font-size: 20px&quot;&gt;Card title&lt;/font&gt;&lt;/b&gt;&lt;br&gt;&lt;br&gt;This is a wider card with supporting text below as a natural lead-in to additional content. This card has even longer content than the first to show that equal height action.&lt;br&gt;&lt;br&gt;&lt;font color=&quot;#999999&quot; style=&quot;font-size: 12px&quot;&gt;Last udated 3 mind ago&lt;/font&gt;" style="html=1;shadow=0;dashed=0;shape=mxgraph.bootstrap.rightButton;rSize=5;strokeColor=#DFDFDF;html=1;whiteSpace=wrap;fillColor=#ffffff;fontColor=#000000;verticalAlign=top;align=left;spacing=20;spacingBottom=0;fontSize=14;spacingTop=160;" parent="u0NLdab73G7xsdPlaEeC-52" vertex="1">
          <mxGeometry x="1" width="260" height="360" relative="1" as="geometry">
            <mxPoint x="-260" as="offset" />
          </mxGeometry>
        </mxCell>
        <mxCell id="u0NLdab73G7xsdPlaEeC-58" value="Image cap" style="html=1;shadow=0;dashed=0;shape=mxgraph.basic.corner_round_rect;dx=2;flipH=1;perimeter=none;whiteSpace=wrap;fillColor=#868E96;strokeColor=#DFDFDF;fontColor=#DEE2E6;resizeWidth=1;fontSize=18;" parent="u0NLdab73G7xsdPlaEeC-57" vertex="1">
          <mxGeometry width="260" height="160" relative="1" as="geometry" />
        </mxCell>
        <mxCell id="u0NLdab73G7xsdPlaEeC-59" value="" style="html=1;shadow=0;dashed=0;shape=mxgraph.bootstrap.rrect;rSize=5;strokeColor=#DFDFDF;html=1;whiteSpace=wrap;fillColor=#ffffff;" parent="1" vertex="1">
          <mxGeometry x="130" y="4750" width="780" height="360" as="geometry" />
        </mxCell>
        <mxCell id="u0NLdab73G7xsdPlaEeC-60" value="&lt;b&gt;&lt;font style=&quot;font-size: 20px&quot;&gt;Card title&lt;/font&gt;&lt;/b&gt;&lt;br&gt;&lt;br&gt;This is a wider card with supporting text below as a natural lead-in to additional content. This content is a little bit longer.&lt;br&gt;&lt;br&gt;&lt;font color=&quot;#999999&quot; style=&quot;font-size: 12px&quot;&gt;Last udated 3 mind ago&lt;/font&gt;" style="html=1;shadow=0;dashed=0;shape=mxgraph.bootstrap.leftButton;rSize=5;strokeColor=#DFDFDF;html=1;whiteSpace=wrap;fillColor=#ffffff;fontColor=#000000;verticalAlign=top;align=left;spacing=20;spacingBottom=0;fontSize=14;spacingTop=160;" parent="u0NLdab73G7xsdPlaEeC-59" vertex="1">
          <mxGeometry width="260" height="360" relative="1" as="geometry" />
        </mxCell>
        <mxCell id="u0NLdab73G7xsdPlaEeC-61" value="Image cap" style="html=1;shadow=0;dashed=0;shape=mxgraph.basic.corner_round_rect;dx=2;perimeter=none;whiteSpace=wrap;fillColor=#868E96;strokeColor=#DFDFDF;fontColor=#DEE2E6;resizeWidth=1;fontSize=18;" parent="u0NLdab73G7xsdPlaEeC-60" vertex="1">
          <mxGeometry width="260" height="160" relative="1" as="geometry" />
        </mxCell>
        <mxCell id="u0NLdab73G7xsdPlaEeC-62" value="&lt;b&gt;&lt;font style=&quot;font-size: 20px&quot;&gt;Card title&lt;/font&gt;&lt;/b&gt;&lt;br&gt;&lt;br&gt;This card has supporting text below as a natural lead-in to additional content.&lt;br&gt;&lt;br&gt;&lt;font color=&quot;#999999&quot; style=&quot;font-size: 12px&quot;&gt;Last udated 3 mind ago&lt;/font&gt;" style="html=1;shadow=0;dashed=0;strokeColor=#DFDFDF;html=1;whiteSpace=wrap;fillColor=#ffffff;fontColor=#000000;verticalAlign=top;align=left;spacing=20;spacingBottom=0;fontSize=14;spacingTop=160;" parent="u0NLdab73G7xsdPlaEeC-59" vertex="1">
          <mxGeometry width="260" height="360" relative="1" as="geometry">
            <mxPoint x="260" as="offset" />
          </mxGeometry>
        </mxCell>
        <mxCell id="u0NLdab73G7xsdPlaEeC-63" value="Image cap" style="html=1;shadow=0;dashed=0;perimeter=none;whiteSpace=wrap;fillColor=#868E96;strokeColor=#DFDFDF;fontColor=#DEE2E6;resizeWidth=1;fontSize=18;" parent="u0NLdab73G7xsdPlaEeC-62" vertex="1">
          <mxGeometry width="260" height="160" relative="1" as="geometry" />
        </mxCell>
        <mxCell id="u0NLdab73G7xsdPlaEeC-64" value="&lt;b&gt;&lt;font style=&quot;font-size: 20px&quot;&gt;Card title&lt;/font&gt;&lt;/b&gt;&lt;br&gt;&lt;br&gt;This is a wider card with supporting text below as a natural lead-in to additional content. This card has even longer content than the first to show that equal height action.&lt;br&gt;&lt;br&gt;&lt;font color=&quot;#999999&quot; style=&quot;font-size: 12px&quot;&gt;Last udated 3 mind ago&lt;/font&gt;" style="html=1;shadow=0;dashed=0;shape=mxgraph.bootstrap.rightButton;rSize=5;strokeColor=#DFDFDF;html=1;whiteSpace=wrap;fillColor=#ffffff;fontColor=#000000;verticalAlign=top;align=left;spacing=20;spacingBottom=0;fontSize=14;spacingTop=160;" parent="u0NLdab73G7xsdPlaEeC-59" vertex="1">
          <mxGeometry x="1" width="260" height="360" relative="1" as="geometry">
            <mxPoint x="-260" as="offset" />
          </mxGeometry>
        </mxCell>
        <mxCell id="u0NLdab73G7xsdPlaEeC-65" value="Image cap" style="html=1;shadow=0;dashed=0;shape=mxgraph.basic.corner_round_rect;dx=2;flipH=1;perimeter=none;whiteSpace=wrap;fillColor=#868E96;strokeColor=#DFDFDF;fontColor=#DEE2E6;resizeWidth=1;fontSize=18;" parent="u0NLdab73G7xsdPlaEeC-64" vertex="1">
          <mxGeometry width="260" height="160" relative="1" as="geometry" />
        </mxCell>
        <mxCell id="u0NLdab73G7xsdPlaEeC-78" style="edgeStyle=orthogonalEdgeStyle;rounded=0;orthogonalLoop=1;jettySize=auto;html=1;" parent="1" source="u0NLdab73G7xsdPlaEeC-68" edge="1">
          <mxGeometry relative="1" as="geometry">
            <mxPoint x="1120" y="-570" as="targetPoint" />
          </mxGeometry>
        </mxCell>
        <mxCell id="u0NLdab73G7xsdPlaEeC-68" value="" style="html=1;shadow=0;dashed=0;shape=mxgraph.bootstrap.rrect;rSize=5;fillColor=#ffffff;strokeColor=#999999;" parent="1" vertex="1">
          <mxGeometry x="1450" y="-700" width="220" height="270" as="geometry" />
        </mxCell>
        <mxCell id="u0NLdab73G7xsdPlaEeC-69" value="Email address" style="fillColor=none;strokeColor=none;align=left;spacing=20;fontSize=14;" parent="u0NLdab73G7xsdPlaEeC-68" vertex="1">
          <mxGeometry width="220" height="40" relative="1" as="geometry">
            <mxPoint y="10" as="offset" />
          </mxGeometry>
        </mxCell>
        <mxCell id="u0NLdab73G7xsdPlaEeC-70" value="email@example.com" style="html=1;shadow=0;dashed=0;shape=mxgraph.bootstrap.rrect;rSize=5;fillColor=none;strokeColor=#999999;align=left;spacing=15;fontSize=14;fontColor=#6C767D;" parent="u0NLdab73G7xsdPlaEeC-68" vertex="1">
          <mxGeometry width="180" height="30" relative="1" as="geometry">
            <mxPoint x="20" y="50" as="offset" />
          </mxGeometry>
        </mxCell>
        <mxCell id="u0NLdab73G7xsdPlaEeC-71" value="Password" style="fillColor=none;strokeColor=none;align=left;spacing=20;fontSize=14;" parent="u0NLdab73G7xsdPlaEeC-68" vertex="1">
          <mxGeometry width="220" height="40" relative="1" as="geometry">
            <mxPoint y="90" as="offset" />
          </mxGeometry>
        </mxCell>
        <mxCell id="u0NLdab73G7xsdPlaEeC-72" value="Password" style="html=1;shadow=0;dashed=0;shape=mxgraph.bootstrap.rrect;rSize=5;fillColor=none;strokeColor=#999999;align=left;spacing=15;fontSize=14;fontColor=#6C767D;" parent="u0NLdab73G7xsdPlaEeC-68" vertex="1">
          <mxGeometry width="180" height="30" relative="1" as="geometry">
            <mxPoint x="20" y="130" as="offset" />
          </mxGeometry>
        </mxCell>
        <mxCell id="u0NLdab73G7xsdPlaEeC-73" value="Remember me" style="html=1;shadow=0;dashed=0;shape=mxgraph.bootstrap.rrect;rSize=2;fillColor=#EDEDED;strokeColor=#999999;align=left;fontSize=14;fontColor=#000000;labelPosition=right;verticalLabelPosition=middle;verticalAlign=middle;spacingLeft=5;spacingTop=-2;gradientColor=#DEDEDE;" parent="u0NLdab73G7xsdPlaEeC-68" vertex="1">
          <mxGeometry width="10" height="10" relative="1" as="geometry">
            <mxPoint x="20" y="180" as="offset" />
          </mxGeometry>
        </mxCell>
        <mxCell id="u0NLdab73G7xsdPlaEeC-74" value="Sign in" style="html=1;shadow=0;dashed=0;shape=mxgraph.bootstrap.rrect;rSize=5;fillColor=#0085FC;strokeColor=none;align=center;fontSize=14;fontColor=#FFFFFF;" parent="u0NLdab73G7xsdPlaEeC-68" vertex="1">
          <mxGeometry width="70" height="40" relative="1" as="geometry">
            <mxPoint x="20" y="210" as="offset" />
          </mxGeometry>
        </mxCell>
        <mxCell id="u0NLdab73G7xsdPlaEeC-75" value="" style="shape=line;strokeColor=#999999;perimeter=none;resizeWidth=1;" parent="u0NLdab73G7xsdPlaEeC-68" vertex="1">
          <mxGeometry width="220" height="10" relative="1" as="geometry">
            <mxPoint y="260" as="offset" />
          </mxGeometry>
        </mxCell>
        <mxCell id="u0NLdab73G7xsdPlaEeC-181" value="Marque" style="fillColor=none;strokeColor=none;align=left;fontSize=14;fontColor=#212529;" parent="1" vertex="1">
          <mxGeometry x="-810" y="4230" width="90" height="30" as="geometry" />
        </mxCell>
        <mxCell id="u0NLdab73G7xsdPlaEeC-182" value="" style="html=1;shadow=0;dashed=0;shape=mxgraph.bootstrap.rrect;rSize=5;fillColor=none;strokeColor=#999999;align=left;spacing=15;fontSize=14;fontColor=#6C767D;" parent="1" vertex="1">
          <mxGeometry x="-810" y="4260" width="150" height="30" as="geometry" />
        </mxCell>
        <mxCell id="u0NLdab73G7xsdPlaEeC-183" value="Prix" style="fillColor=none;strokeColor=none;align=left;fontSize=14;fontColor=#212529;" parent="1" vertex="1">
          <mxGeometry x="-610" y="4230" width="90" height="30" as="geometry" />
        </mxCell>
        <mxCell id="u0NLdab73G7xsdPlaEeC-184" value="" style="html=1;shadow=0;dashed=0;shape=mxgraph.bootstrap.rrect;rSize=5;fillColor=none;strokeColor=#999999;align=left;spacing=15;fontSize=14;fontColor=#6C767D;" parent="1" vertex="1">
          <mxGeometry x="-610" y="4260" width="150" height="30" as="geometry" />
        </mxCell>
        <mxCell id="u0NLdab73G7xsdPlaEeC-185" value="Carburant" style="fillColor=none;strokeColor=none;align=left;fontSize=14;fontColor=#212529;" parent="1" vertex="1">
          <mxGeometry x="-805" y="4320" width="90" height="30" as="geometry" />
        </mxCell>
        <mxCell id="u0NLdab73G7xsdPlaEeC-186" value="" style="html=1;shadow=0;dashed=0;shape=mxgraph.bootstrap.rrect;rSize=5;fillColor=none;strokeColor=#999999;align=left;spacing=15;fontSize=14;fontColor=#6C767D;" parent="1" vertex="1">
          <mxGeometry x="-805" y="4350" width="150" height="30" as="geometry" />
        </mxCell>
        <mxCell id="u0NLdab73G7xsdPlaEeC-187" value="Kilomètre" style="fillColor=none;strokeColor=none;align=left;fontSize=14;fontColor=#212529;" parent="1" vertex="1">
          <mxGeometry x="-600" y="4320" width="90" height="30" as="geometry" />
        </mxCell>
        <mxCell id="u0NLdab73G7xsdPlaEeC-188" value="" style="html=1;shadow=0;dashed=0;shape=mxgraph.bootstrap.rrect;rSize=5;fillColor=none;strokeColor=#999999;align=left;spacing=15;fontSize=14;fontColor=#6C767D;" parent="1" vertex="1">
          <mxGeometry x="-600" y="4350" width="150" height="30" as="geometry" />
        </mxCell>
        <mxCell id="u0NLdab73G7xsdPlaEeC-189" value="Marque" style="fillColor=none;strokeColor=none;align=left;fontSize=14;fontColor=#212529;" parent="1" vertex="1">
          <mxGeometry x="95" y="4230" width="90" height="30" as="geometry" />
        </mxCell>
        <mxCell id="u0NLdab73G7xsdPlaEeC-190" value="" style="html=1;shadow=0;dashed=0;shape=mxgraph.bootstrap.rrect;rSize=5;fillColor=none;strokeColor=#999999;align=left;spacing=15;fontSize=14;fontColor=#6C767D;" parent="1" vertex="1">
          <mxGeometry x="95" y="4260" width="150" height="30" as="geometry" />
        </mxCell>
        <mxCell id="u0NLdab73G7xsdPlaEeC-191" value="Prix" style="fillColor=none;strokeColor=none;align=left;fontSize=14;fontColor=#212529;" parent="1" vertex="1">
          <mxGeometry x="290" y="4230" width="90" height="30" as="geometry" />
        </mxCell>
        <mxCell id="u0NLdab73G7xsdPlaEeC-192" value="" style="html=1;shadow=0;dashed=0;shape=mxgraph.bootstrap.rrect;rSize=5;fillColor=none;strokeColor=#999999;align=left;spacing=15;fontSize=14;fontColor=#6C767D;" parent="1" vertex="1">
          <mxGeometry x="290" y="4260" width="150" height="30" as="geometry" />
        </mxCell>
        <mxCell id="u0NLdab73G7xsdPlaEeC-193" value="Carburant" style="fillColor=none;strokeColor=none;align=left;fontSize=14;fontColor=#212529;" parent="1" vertex="1">
          <mxGeometry x="500" y="4230" width="90" height="30" as="geometry" />
        </mxCell>
        <mxCell id="u0NLdab73G7xsdPlaEeC-194" value="" style="html=1;shadow=0;dashed=0;shape=mxgraph.bootstrap.rrect;rSize=5;fillColor=none;strokeColor=#999999;align=left;spacing=15;fontSize=14;fontColor=#6C767D;" parent="1" vertex="1">
          <mxGeometry x="500" y="4260" width="150" height="30" as="geometry" />
        </mxCell>
        <mxCell id="u0NLdab73G7xsdPlaEeC-195" value="Kilomètre" style="fillColor=none;strokeColor=none;align=left;fontSize=14;fontColor=#212529;" parent="1" vertex="1">
          <mxGeometry x="735" y="4230" width="90" height="30" as="geometry" />
        </mxCell>
        <mxCell id="u0NLdab73G7xsdPlaEeC-196" value="" style="html=1;shadow=0;dashed=0;shape=mxgraph.bootstrap.rrect;rSize=5;fillColor=none;strokeColor=#999999;align=left;spacing=15;fontSize=14;fontColor=#6C767D;" parent="1" vertex="1">
          <mxGeometry x="735" y="4260" width="150" height="30" as="geometry" />
        </mxCell>
        <mxCell id="u0NLdab73G7xsdPlaEeC-197" value="&lt;b&gt;&lt;font style=&quot;font-size: 20px&quot;&gt;Card title&lt;/font&gt;&lt;/b&gt;&lt;br&gt;&lt;br&gt;This is a wider card with supporting text below as a natural lead-in to additional content. This content is a little bit longer.&lt;br&gt;&lt;br&gt;&lt;font color=&quot;#999999&quot; style=&quot;font-size: 12px&quot;&gt;Last udated 3 mind ago&lt;/font&gt;" style="html=1;shadow=0;dashed=0;shape=mxgraph.bootstrap.leftButton;rSize=5;strokeColor=#DFDFDF;html=1;whiteSpace=wrap;fillColor=#ffffff;fontColor=#000000;verticalAlign=top;align=left;spacing=20;spacingBottom=0;fontSize=14;spacingTop=160;" parent="1" vertex="1">
          <mxGeometry x="-810" y="4410" width="190" height="350" as="geometry" />
        </mxCell>
        <mxCell id="u0NLdab73G7xsdPlaEeC-198" value="Image cap" style="html=1;shadow=0;dashed=0;shape=mxgraph.basic.corner_round_rect;dx=2;perimeter=none;whiteSpace=wrap;fillColor=#868E96;strokeColor=#DFDFDF;fontColor=#DEE2E6;resizeWidth=1;fontSize=18;" parent="u0NLdab73G7xsdPlaEeC-197" vertex="1">
          <mxGeometry width="190" height="160" relative="1" as="geometry" />
        </mxCell>
        <mxCell id="u0NLdab73G7xsdPlaEeC-199" value="&lt;b&gt;&lt;font style=&quot;font-size: 20px&quot;&gt;Card title&lt;/font&gt;&lt;/b&gt;&lt;br&gt;&lt;br&gt;This is a wider card with supporting text below as a natural lead-in to additional content. This content is a little bit longer.&lt;br&gt;&lt;br&gt;&lt;font color=&quot;#999999&quot; style=&quot;font-size: 12px&quot;&gt;Last udated 3 mind ago&lt;/font&gt;" style="html=1;shadow=0;dashed=0;shape=mxgraph.bootstrap.leftButton;rSize=5;strokeColor=#DFDFDF;html=1;whiteSpace=wrap;fillColor=#ffffff;fontColor=#000000;verticalAlign=top;align=left;spacing=20;spacingBottom=0;fontSize=14;spacingTop=160;" parent="1" vertex="1">
          <mxGeometry x="-610" y="4410" width="190" height="350" as="geometry" />
        </mxCell>
        <mxCell id="u0NLdab73G7xsdPlaEeC-200" value="Image cap" style="html=1;shadow=0;dashed=0;shape=mxgraph.basic.corner_round_rect;dx=2;perimeter=none;whiteSpace=wrap;fillColor=#868E96;strokeColor=#DFDFDF;fontColor=#DEE2E6;resizeWidth=1;fontSize=18;" parent="u0NLdab73G7xsdPlaEeC-199" vertex="1">
          <mxGeometry width="190" height="160" relative="1" as="geometry" />
        </mxCell>
        <mxCell id="u0NLdab73G7xsdPlaEeC-201" value="&lt;b&gt;&lt;font style=&quot;font-size: 20px&quot;&gt;Card title&lt;/font&gt;&lt;/b&gt;&lt;br&gt;&lt;br&gt;This is a wider card with supporting text below as a natural lead-in to additional content. This content is a little bit longer.&lt;br&gt;&lt;br&gt;&lt;font color=&quot;#999999&quot; style=&quot;font-size: 12px&quot;&gt;Last udated 3 mind ago&lt;/font&gt;" style="html=1;shadow=0;dashed=0;shape=mxgraph.bootstrap.leftButton;rSize=5;strokeColor=#DFDFDF;html=1;whiteSpace=wrap;fillColor=#ffffff;fontColor=#000000;verticalAlign=top;align=left;spacing=20;spacingBottom=0;fontSize=14;spacingTop=160;" parent="1" vertex="1">
          <mxGeometry x="-810" y="4790" width="200" height="350" as="geometry" />
        </mxCell>
        <mxCell id="u0NLdab73G7xsdPlaEeC-202" value="Image cap" style="html=1;shadow=0;dashed=0;shape=mxgraph.basic.corner_round_rect;dx=2;perimeter=none;whiteSpace=wrap;fillColor=#868E96;strokeColor=#DFDFDF;fontColor=#DEE2E6;resizeWidth=1;fontSize=18;" parent="u0NLdab73G7xsdPlaEeC-201" vertex="1">
          <mxGeometry width="200" height="160" relative="1" as="geometry" />
        </mxCell>
        <mxCell id="u0NLdab73G7xsdPlaEeC-203" value="&lt;b&gt;&lt;font style=&quot;font-size: 20px&quot;&gt;Card title&lt;/font&gt;&lt;/b&gt;&lt;br&gt;&lt;br&gt;This is a wider card with supporting text below as a natural lead-in to additional content. This content is a little bit longer.&lt;br&gt;&lt;br&gt;&lt;font color=&quot;#999999&quot; style=&quot;font-size: 12px&quot;&gt;Last udated 3 mind ago&lt;/font&gt;" style="html=1;shadow=0;dashed=0;shape=mxgraph.bootstrap.leftButton;rSize=5;strokeColor=#DFDFDF;html=1;whiteSpace=wrap;fillColor=#ffffff;fontColor=#000000;verticalAlign=top;align=left;spacing=20;spacingBottom=0;fontSize=14;spacingTop=160;" parent="1" vertex="1">
          <mxGeometry x="-600" y="4790" width="180" height="350" as="geometry" />
        </mxCell>
        <mxCell id="u0NLdab73G7xsdPlaEeC-204" value="Image cap" style="html=1;shadow=0;dashed=0;shape=mxgraph.basic.corner_round_rect;dx=2;perimeter=none;whiteSpace=wrap;fillColor=#868E96;strokeColor=#DFDFDF;fontColor=#DEE2E6;resizeWidth=1;fontSize=18;" parent="u0NLdab73G7xsdPlaEeC-203" vertex="1">
          <mxGeometry width="180" height="160" relative="1" as="geometry" />
        </mxCell>
        <mxCell id="u0NLdab73G7xsdPlaEeC-205" value="&lt;b&gt;&lt;font style=&quot;font-size: 20px&quot;&gt;Card title&lt;/font&gt;&lt;/b&gt;&lt;br&gt;&lt;br&gt;This is a wider card with supporting text below as a natural lead-in to additional content. This content is a little bit longer.&lt;br&gt;&lt;br&gt;&lt;font color=&quot;#999999&quot; style=&quot;font-size: 12px&quot;&gt;Last udated 3 mind ago&lt;/font&gt;" style="html=1;shadow=0;dashed=0;shape=mxgraph.bootstrap.leftButton;rSize=5;strokeColor=#DFDFDF;html=1;whiteSpace=wrap;fillColor=#ffffff;fontColor=#000000;verticalAlign=top;align=left;spacing=20;spacingBottom=0;fontSize=14;spacingTop=160;" parent="1" vertex="1">
          <mxGeometry x="-810" y="5180" width="200" height="350" as="geometry" />
        </mxCell>
        <mxCell id="u0NLdab73G7xsdPlaEeC-206" value="Image cap" style="html=1;shadow=0;dashed=0;shape=mxgraph.basic.corner_round_rect;dx=2;perimeter=none;whiteSpace=wrap;fillColor=#868E96;strokeColor=#DFDFDF;fontColor=#DEE2E6;resizeWidth=1;fontSize=18;" parent="u0NLdab73G7xsdPlaEeC-205" vertex="1">
          <mxGeometry width="200" height="160" relative="1" as="geometry" />
        </mxCell>
        <mxCell id="u0NLdab73G7xsdPlaEeC-207" value="&lt;b&gt;&lt;font style=&quot;font-size: 20px&quot;&gt;Card title&lt;/font&gt;&lt;/b&gt;&lt;br&gt;&lt;br&gt;This is a wider card with supporting text below as a natural lead-in to additional content. This content is a little bit longer.&lt;br&gt;&lt;br&gt;&lt;font color=&quot;#999999&quot; style=&quot;font-size: 12px&quot;&gt;Last udated 3 mind ago&lt;/font&gt;" style="html=1;shadow=0;dashed=0;shape=mxgraph.bootstrap.leftButton;rSize=5;strokeColor=#DFDFDF;html=1;whiteSpace=wrap;fillColor=#ffffff;fontColor=#000000;verticalAlign=top;align=left;spacing=20;spacingBottom=0;fontSize=14;spacingTop=160;" parent="1" vertex="1">
          <mxGeometry x="-600" y="5180" width="180" height="350" as="geometry" />
        </mxCell>
        <mxCell id="u0NLdab73G7xsdPlaEeC-208" value="Image cap" style="html=1;shadow=0;dashed=0;shape=mxgraph.basic.corner_round_rect;dx=2;perimeter=none;whiteSpace=wrap;fillColor=#868E96;strokeColor=#DFDFDF;fontColor=#DEE2E6;resizeWidth=1;fontSize=18;" parent="u0NLdab73G7xsdPlaEeC-207" vertex="1">
          <mxGeometry width="180" height="160" relative="1" as="geometry" />
        </mxCell>
        <mxCell id="u0NLdab73G7xsdPlaEeC-209" value="" style="line;strokeWidth=1;html=1;rounded=0;shadow=0;labelBackgroundColor=none;fillColor=none;fontFamily=Verdana;fontSize=14;fontColor=#000000;align=center;comic=1;" parent="1" vertex="1">
          <mxGeometry x="10" y="5710" width="1060" height="10" as="geometry" />
        </mxCell>
        <mxCell id="u0NLdab73G7xsdPlaEeC-210" value="" style="line;strokeWidth=1;html=1;rounded=0;shadow=0;labelBackgroundColor=none;fillColor=none;fontFamily=Verdana;fontSize=14;fontColor=#000000;align=center;comic=1;" parent="1" vertex="1">
          <mxGeometry x="-1080" y="5710" width="1060" height="10" as="geometry" />
        </mxCell>
        <mxCell id="u0NLdab73G7xsdPlaEeC-211" value="&lt;font style=&quot;font-size: 26px;&quot;&gt;Contact&lt;/font&gt;" style="text;html=1;strokeColor=#666666;fillColor=#f5f5f5;align=center;verticalAlign=middle;whiteSpace=wrap;rounded=0;fontColor=#333333;" parent="1" vertex="1">
          <mxGeometry x="-100" y="6130" width="210" height="80" as="geometry" />
        </mxCell>
        <mxCell id="u0NLdab73G7xsdPlaEeC-212" value="" style="line;strokeWidth=1;html=1;rounded=0;shadow=0;labelBackgroundColor=none;fillColor=none;fontFamily=Verdana;fontSize=14;fontColor=#000000;align=center;comic=1;" parent="1" vertex="1">
          <mxGeometry x="20" y="5950" width="1060" height="10" as="geometry" />
        </mxCell>
        <mxCell id="u0NLdab73G7xsdPlaEeC-213" value="" style="line;strokeWidth=1;html=1;rounded=0;shadow=0;labelBackgroundColor=none;fillColor=none;fontFamily=Verdana;fontSize=14;fontColor=#000000;align=center;comic=1;" parent="1" vertex="1">
          <mxGeometry x="-1085" y="5950" width="1060" height="10" as="geometry" />
        </mxCell>
        <mxCell id="u0NLdab73G7xsdPlaEeC-214" value="" style="whiteSpace=wrap;html=1;rounded=0;shadow=0;labelBackgroundColor=none;strokeWidth=1;fontFamily=Verdana;fontSize=12;align=center;comic=1;" parent="1" vertex="1">
          <mxGeometry x="80" y="6400" width="960" height="1250" as="geometry" />
        </mxCell>
        <mxCell id="u0NLdab73G7xsdPlaEeC-215" value="Contact" style="whiteSpace=wrap;html=1;rounded=0;shadow=0;labelBackgroundColor=none;strokeWidth=1;fillColor=none;fontFamily=Verdana;fontSize=12;align=center;comic=1;" parent="1" vertex="1">
          <mxGeometry x="110" y="6440" width="220" height="40" as="geometry" />
        </mxCell>
        <mxCell id="u0NLdab73G7xsdPlaEeC-216" value="" style="whiteSpace=wrap;html=1;rounded=0;shadow=0;labelBackgroundColor=none;strokeWidth=1;fontFamily=Verdana;fontSize=12;align=center;comic=1;" parent="1" vertex="1">
          <mxGeometry x="-820" y="6410" width="410" height="1710" as="geometry" />
        </mxCell>
        <mxCell id="u0NLdab73G7xsdPlaEeC-217" value="Contact" style="whiteSpace=wrap;html=1;rounded=0;shadow=0;labelBackgroundColor=none;strokeWidth=1;fillColor=none;fontFamily=Verdana;fontSize=12;align=center;comic=1;" parent="1" vertex="1">
          <mxGeometry x="-790" y="6450" width="220" height="40" as="geometry" />
        </mxCell>
        <mxCell id="u0NLdab73G7xsdPlaEeC-218" value="First name" style="fillColor=none;strokeColor=none;align=left;fontSize=14;" parent="1" vertex="1">
          <mxGeometry x="180" y="6650" width="100" height="30" as="geometry" />
        </mxCell>
        <mxCell id="u0NLdab73G7xsdPlaEeC-219" value="Mark" style="html=1;shadow=0;dashed=0;shape=mxgraph.bootstrap.rrect;rSize=5;fillColor=#ffffff;strokeColor=#CED4DA;align=left;spacing=15;fontSize=14;fontColor=#6C767D;" parent="1" vertex="1">
          <mxGeometry x="180" y="6680" width="260" height="40" as="geometry" />
        </mxCell>
        <mxCell id="u0NLdab73G7xsdPlaEeC-220" value="Last name" style="fillColor=none;strokeColor=none;align=left;fontSize=14;" parent="1" vertex="1">
          <mxGeometry x="450" y="6650" width="100" height="30" as="geometry" />
        </mxCell>
        <mxCell id="u0NLdab73G7xsdPlaEeC-221" value="Otto" style="html=1;shadow=0;dashed=0;shape=mxgraph.bootstrap.rrect;rSize=5;fillColor=#ffffff;strokeColor=#CED4DA;align=left;spacing=15;fontSize=14;fontColor=#6C767D;" parent="1" vertex="1">
          <mxGeometry x="450" y="6680" width="260" height="40" as="geometry" />
        </mxCell>
        <mxCell id="u0NLdab73G7xsdPlaEeC-222" value="Email" style="fillColor=none;strokeColor=none;align=left;fontSize=14;" parent="1" vertex="1">
          <mxGeometry x="-810" y="6680" width="100" height="30" as="geometry" />
        </mxCell>
        <mxCell id="u0NLdab73G7xsdPlaEeC-223" value="" style="html=1;shadow=0;dashed=0;shape=mxgraph.bootstrap.rrect;rSize=5;fillColor=#ffffff;strokeColor=#CED4DA;align=left;spacingLeft=50;fontSize=14;fontColor=#6C767D;" parent="1" vertex="1">
          <mxGeometry x="-810" y="6710" width="180" height="40" as="geometry" />
        </mxCell>
        <mxCell id="u0NLdab73G7xsdPlaEeC-224" value="@" style="html=1;shadow=0;dashed=0;shape=mxgraph.bootstrap.leftButton;rSize=5;strokeColor=#CED4DA;fillColor=#f0f0f0;whiteSpace=wrap;resizeHeight=1;fontColor=#495057;" parent="u0NLdab73G7xsdPlaEeC-223" vertex="1">
          <mxGeometry width="40" height="40" relative="1" as="geometry" />
        </mxCell>
        <mxCell id="u0NLdab73G7xsdPlaEeC-225" value="Adresse complete" style="fillColor=none;strokeColor=none;align=left;fontSize=14;" parent="1" vertex="1">
          <mxGeometry x="180" y="6730" width="120" height="30" as="geometry" />
        </mxCell>
        <mxCell id="u0NLdab73G7xsdPlaEeC-226" value="" style="html=1;shadow=0;dashed=0;shape=mxgraph.bootstrap.rrect;rSize=5;fillColor=#ffffff;strokeColor=#CED4DA;align=left;spacing=15;fontSize=14;fontColor=#6C767D;" parent="1" vertex="1">
          <mxGeometry x="180" y="6760" width="390" height="40" as="geometry" />
        </mxCell>
        <mxCell id="u0NLdab73G7xsdPlaEeC-227" value="Code Postal" style="fillColor=none;strokeColor=none;align=left;fontSize=14;" parent="1" vertex="1">
          <mxGeometry x="580" y="6730" width="100" height="30" as="geometry" />
        </mxCell>
        <mxCell id="u0NLdab73G7xsdPlaEeC-228" value="Choose..." style="html=1;shadow=0;dashed=0;shape=mxgraph.bootstrap.rrect;rSize=5;fillColor=#ffffff;strokeColor=#CED4DA;align=left;spacing=15;fontSize=14;fontColor=#6C767D;" parent="1" vertex="1">
          <mxGeometry x="580" y="6760" width="200" height="40" as="geometry" />
        </mxCell>
        <mxCell id="u0NLdab73G7xsdPlaEeC-229" value="" style="shape=triangle;direction=south;fillColor=#343A40;strokeColor=none;perimeter=none;" parent="u0NLdab73G7xsdPlaEeC-228" vertex="1">
          <mxGeometry x="1" y="0.5" width="7" height="3" relative="1" as="geometry">
            <mxPoint x="-17" y="1" as="offset" />
          </mxGeometry>
        </mxCell>
        <mxCell id="u0NLdab73G7xsdPlaEeC-230" value="" style="shape=triangle;direction=north;fillColor=#343A40;strokeColor=none;perimeter=none;" parent="u0NLdab73G7xsdPlaEeC-228" vertex="1">
          <mxGeometry x="1" y="0.5" width="7" height="3" relative="1" as="geometry">
            <mxPoint x="-17" y="-4" as="offset" />
          </mxGeometry>
        </mxCell>
        <mxCell id="u0NLdab73G7xsdPlaEeC-231" value="Phone" style="fillColor=none;strokeColor=none;align=left;fontSize=14;" parent="1" vertex="1">
          <mxGeometry x="790" y="6730" width="190" height="30" as="geometry" />
        </mxCell>
        <mxCell id="u0NLdab73G7xsdPlaEeC-232" value="" style="html=1;shadow=0;dashed=0;shape=mxgraph.bootstrap.rrect;rSize=5;fillColor=#ffffff;strokeColor=#CED4DA;align=left;spacing=15;fontSize=14;fontColor=#6C767D;" parent="1" vertex="1">
          <mxGeometry x="790" y="6760" width="190" height="40" as="geometry" />
        </mxCell>
        <mxCell id="u0NLdab73G7xsdPlaEeC-233" value="Agree to term and conditions" style="html=1;shadow=0;dashed=0;shape=mxgraph.bootstrap.checkbox2;labelPosition=right;verticalLabelPosition=middle;align=left;verticalAlign=middle;gradientColor=#DEDEDE;fillColor=#EDEDED;strokeColor=#A6A6A6;checked=0;spacing=5;checkedFill=#0085FC;checkedStroke=#ffffff;" parent="1" vertex="1">
          <mxGeometry x="180" y="7100" width="10" height="10" as="geometry" />
        </mxCell>
        <mxCell id="u0NLdab73G7xsdPlaEeC-234" value="Submit form" style="html=1;shadow=0;dashed=0;shape=mxgraph.bootstrap.rrect;rSize=5;fillColor=#0085FC;strokeColor=none;align=center;spacing=15;fontSize=14;fontColor=#ffffff;" parent="1" vertex="1">
          <mxGeometry x="175" y="7140" width="120" height="40" as="geometry" />
        </mxCell>
        <mxCell id="u0NLdab73G7xsdPlaEeC-235" value="" style="html=1;shadow=0;dashed=0;shape=mxgraph.bootstrap.rrect;rSize=5;fillColor=#ffffff;strokeColor=#CED4DA;align=left;spacing=15;fontSize=14;fontColor=#6C767D;" parent="1" vertex="1">
          <mxGeometry x="180" y="6830" width="390" height="40" as="geometry" />
        </mxCell>
        <mxCell id="u0NLdab73G7xsdPlaEeC-236" value="Objet :" style="fillColor=none;strokeColor=none;align=left;fontSize=14;" parent="1" vertex="1">
          <mxGeometry x="180" y="6800" width="120" height="30" as="geometry" />
        </mxCell>
        <mxCell id="u0NLdab73G7xsdPlaEeC-237" value="" style="html=1;shadow=0;dashed=0;shape=mxgraph.bootstrap.rrect;rSize=5;fillColor=#ffffff;strokeColor=#CED4DA;align=left;spacing=15;fontSize=14;fontColor=#6C767D;" parent="1" vertex="1">
          <mxGeometry x="180" y="6905" width="810" height="175" as="geometry" />
        </mxCell>
        <mxCell id="u0NLdab73G7xsdPlaEeC-239" value="Messages :" style="fillColor=none;strokeColor=none;align=left;fontSize=14;" parent="1" vertex="1">
          <mxGeometry x="180" y="6875" width="120" height="30" as="geometry" />
        </mxCell>
        <mxCell id="u0NLdab73G7xsdPlaEeC-240" value="" style="verticalLabelPosition=bottom;shadow=0;dashed=0;align=center;html=1;verticalAlign=top;strokeWidth=1;shape=mxgraph.mockup.misc.map;" parent="1" vertex="1">
          <mxGeometry x="170" y="7250" width="450" height="340" as="geometry" />
        </mxCell>
        <mxCell id="u0NLdab73G7xsdPlaEeC-241" value="" style="strokeWidth=1;shadow=0;dashed=0;align=center;html=1;shape=mxgraph.mockup.forms.rrect;rSize=0;strokeColor=#999999;fillColor=#ffffff;" parent="1" vertex="1">
          <mxGeometry x="770" y="7470" width="150" height="120" as="geometry" />
        </mxCell>
        <mxCell id="u0NLdab73G7xsdPlaEeC-242" value="Reseau sociaux" style="strokeWidth=1;shadow=0;dashed=0;align=center;html=1;shape=mxgraph.mockup.forms.rrect;rSize=0;strokeColor=#999999;fontColor=#008cff;fontSize=17;fillColor=#ffffff;resizeWidth=1;whiteSpace=wrap;" parent="u0NLdab73G7xsdPlaEeC-241" vertex="1">
          <mxGeometry width="150" height="30" relative="1" as="geometry">
            <mxPoint y="-1" as="offset" />
          </mxGeometry>
        </mxCell>
        <mxCell id="u0NLdab73G7xsdPlaEeC-243" value="Facebook" style="strokeWidth=1;shadow=0;dashed=0;align=center;html=1;shape=mxgraph.mockup.forms.anchor;fontSize=17;fontColor=#666666;align=left;spacingLeft=5;resizeWidth=1;whiteSpace=wrap;" parent="u0NLdab73G7xsdPlaEeC-241" vertex="1">
          <mxGeometry width="150" height="20" relative="1" as="geometry">
            <mxPoint y="30" as="offset" />
          </mxGeometry>
        </mxCell>
        <mxCell id="u0NLdab73G7xsdPlaEeC-244" value="Instagram" style="strokeWidth=1;shadow=0;dashed=0;align=center;html=1;shape=mxgraph.mockup.forms.anchor;fontSize=17;fontColor=#666666;align=left;spacingLeft=5;resizeWidth=1;whiteSpace=wrap;" parent="u0NLdab73G7xsdPlaEeC-241" vertex="1">
          <mxGeometry width="150" height="20" relative="1" as="geometry">
            <mxPoint y="50" as="offset" />
          </mxGeometry>
        </mxCell>
        <mxCell id="u0NLdab73G7xsdPlaEeC-245" value="Linkedin" style="strokeWidth=1;shadow=0;dashed=0;align=center;html=1;shape=mxgraph.mockup.forms.rrect;rSize=0;fontSize=17;fontColor=#666666;align=left;spacingLeft=5;fillColor=#ddeeff;strokeColor=none;resizeWidth=1;whiteSpace=wrap;" parent="u0NLdab73G7xsdPlaEeC-241" vertex="1">
          <mxGeometry width="150" height="20" relative="1" as="geometry">
            <mxPoint y="70" as="offset" />
          </mxGeometry>
        </mxCell>
        <mxCell id="u0NLdab73G7xsdPlaEeC-246" value="" style="strokeWidth=1;shadow=0;dashed=0;align=center;html=1;shape=mxgraph.mockup.forms.anchor;fontSize=17;fontColor=#666666;align=left;spacingLeft=5;resizeWidth=1;whiteSpace=wrap;" parent="u0NLdab73G7xsdPlaEeC-241" vertex="1">
          <mxGeometry width="150" height="20" relative="1" as="geometry">
            <mxPoint y="90" as="offset" />
          </mxGeometry>
        </mxCell>
        <mxCell id="u0NLdab73G7xsdPlaEeC-247" value="" style="strokeWidth=1;shadow=0;dashed=0;align=center;html=1;shape=mxgraph.mockup.forms.rrect;rSize=0;strokeColor=#999999;fillColor=#ffffff;" parent="1" vertex="1">
          <mxGeometry x="770" y="7250" width="150" height="160" as="geometry" />
        </mxCell>
        <mxCell id="u0NLdab73G7xsdPlaEeC-248" value="Garage V Parrot" style="strokeWidth=1;shadow=0;dashed=0;align=center;html=1;shape=mxgraph.mockup.forms.rrect;rSize=0;strokeColor=#999999;fontColor=#008cff;fontSize=17;fillColor=#ffffff;resizeWidth=1;whiteSpace=wrap;" parent="u0NLdab73G7xsdPlaEeC-247" vertex="1">
          <mxGeometry width="150" height="30" relative="1" as="geometry">
            <mxPoint y="-1" as="offset" />
          </mxGeometry>
        </mxCell>
        <mxCell id="u0NLdab73G7xsdPlaEeC-249" value="Adresse" style="strokeWidth=1;shadow=0;dashed=0;align=center;html=1;shape=mxgraph.mockup.forms.anchor;fontSize=17;fontColor=#666666;align=left;spacingLeft=5;resizeWidth=1;whiteSpace=wrap;" parent="u0NLdab73G7xsdPlaEeC-247" vertex="1">
          <mxGeometry width="150" height="20" relative="1" as="geometry">
            <mxPoint y="30" as="offset" />
          </mxGeometry>
        </mxCell>
        <mxCell id="u0NLdab73G7xsdPlaEeC-250" value="Numero de tel" style="strokeWidth=1;shadow=0;dashed=0;align=center;html=1;shape=mxgraph.mockup.forms.anchor;fontSize=17;fontColor=#666666;align=left;spacingLeft=5;resizeWidth=1;whiteSpace=wrap;" parent="u0NLdab73G7xsdPlaEeC-247" vertex="1">
          <mxGeometry width="150" height="20" relative="1" as="geometry">
            <mxPoint y="50" as="offset" />
          </mxGeometry>
        </mxCell>
        <mxCell id="u0NLdab73G7xsdPlaEeC-251" value="Numero de tel" style="strokeWidth=1;shadow=0;dashed=0;align=center;html=1;shape=mxgraph.mockup.forms.rrect;rSize=0;fontSize=17;fontColor=#666666;align=left;spacingLeft=5;fillColor=#ddeeff;strokeColor=none;resizeWidth=1;whiteSpace=wrap;" parent="u0NLdab73G7xsdPlaEeC-247" vertex="1">
          <mxGeometry width="150" height="20" relative="1" as="geometry">
            <mxPoint y="70" as="offset" />
          </mxGeometry>
        </mxCell>
        <mxCell id="u0NLdab73G7xsdPlaEeC-252" value="Mail" style="strokeWidth=1;shadow=0;dashed=0;align=center;html=1;shape=mxgraph.mockup.forms.anchor;fontSize=17;fontColor=#666666;align=left;spacingLeft=5;resizeWidth=1;whiteSpace=wrap;" parent="u0NLdab73G7xsdPlaEeC-247" vertex="1">
          <mxGeometry width="150" height="20" relative="1" as="geometry">
            <mxPoint y="90" as="offset" />
          </mxGeometry>
        </mxCell>
        <mxCell id="u0NLdab73G7xsdPlaEeC-253" value="First name" style="fillColor=none;strokeColor=none;align=left;fontSize=14;" parent="1" vertex="1">
          <mxGeometry x="-805" y="6590" width="100" height="30" as="geometry" />
        </mxCell>
        <mxCell id="u0NLdab73G7xsdPlaEeC-254" value="Mark" style="html=1;shadow=0;dashed=0;shape=mxgraph.bootstrap.rrect;rSize=5;fillColor=#ffffff;strokeColor=#CED4DA;align=left;spacing=15;fontSize=14;fontColor=#6C767D;" parent="1" vertex="1">
          <mxGeometry x="-805" y="6620" width="155" height="40" as="geometry" />
        </mxCell>
        <mxCell id="u0NLdab73G7xsdPlaEeC-255" value="Last name" style="fillColor=none;strokeColor=none;align=left;fontSize=14;" parent="1" vertex="1">
          <mxGeometry x="-620" y="6590" width="100" height="30" as="geometry" />
        </mxCell>
        <mxCell id="u0NLdab73G7xsdPlaEeC-256" value="Otto" style="html=1;shadow=0;dashed=0;shape=mxgraph.bootstrap.rrect;rSize=5;fillColor=#ffffff;strokeColor=#CED4DA;align=left;spacing=15;fontSize=14;fontColor=#6C767D;" parent="1" vertex="1">
          <mxGeometry x="-620" y="6620" width="180" height="40" as="geometry" />
        </mxCell>
        <mxCell id="u0NLdab73G7xsdPlaEeC-269" value="Adresse complete" style="fillColor=none;strokeColor=none;align=left;fontSize=14;" parent="1" vertex="1">
          <mxGeometry x="-810" y="6780" width="120" height="30" as="geometry" />
        </mxCell>
        <mxCell id="u0NLdab73G7xsdPlaEeC-270" value="" style="html=1;shadow=0;dashed=0;shape=mxgraph.bootstrap.rrect;rSize=5;fillColor=#ffffff;strokeColor=#CED4DA;align=left;spacing=15;fontSize=14;fontColor=#6C767D;" parent="1" vertex="1">
          <mxGeometry x="-810" y="6810" width="390" height="40" as="geometry" />
        </mxCell>
        <mxCell id="u0NLdab73G7xsdPlaEeC-271" value="Code Postal" style="fillColor=none;strokeColor=none;align=left;fontSize=14;" parent="1" vertex="1">
          <mxGeometry x="-810" y="6870" width="100" height="30" as="geometry" />
        </mxCell>
        <mxCell id="u0NLdab73G7xsdPlaEeC-272" value="" style="html=1;shadow=0;dashed=0;shape=mxgraph.bootstrap.rrect;rSize=5;fillColor=#ffffff;strokeColor=#CED4DA;align=left;spacing=15;fontSize=14;fontColor=#6C767D;" parent="1" vertex="1">
          <mxGeometry x="-815" y="6900" width="200" height="40" as="geometry" />
        </mxCell>
        <mxCell id="u0NLdab73G7xsdPlaEeC-275" value="" style="html=1;shadow=0;dashed=0;shape=mxgraph.bootstrap.rrect;rSize=5;fillColor=#ffffff;strokeColor=#CED4DA;align=left;spacing=15;fontSize=14;fontColor=#6C767D;" parent="1" vertex="1">
          <mxGeometry x="-810" y="6992.5" width="190" height="40" as="geometry" />
        </mxCell>
        <mxCell id="u0NLdab73G7xsdPlaEeC-276" value="Objet :" style="fillColor=none;strokeColor=none;align=left;fontSize=14;" parent="1" vertex="1">
          <mxGeometry x="-810" y="6952.5" width="120" height="30" as="geometry" />
        </mxCell>
        <mxCell id="u0NLdab73G7xsdPlaEeC-277" value="Phone" style="fillColor=none;strokeColor=none;align=left;fontSize=14;" parent="1" vertex="1">
          <mxGeometry x="-605" y="6680" width="190" height="30" as="geometry" />
        </mxCell>
        <mxCell id="u0NLdab73G7xsdPlaEeC-278" value="" style="html=1;shadow=0;dashed=0;shape=mxgraph.bootstrap.rrect;rSize=5;fillColor=#ffffff;strokeColor=#CED4DA;align=left;spacing=15;fontSize=14;fontColor=#6C767D;" parent="1" vertex="1">
          <mxGeometry x="-605" y="6710" width="175" height="40" as="geometry" />
        </mxCell>
        <mxCell id="u0NLdab73G7xsdPlaEeC-279" value="" style="html=1;shadow=0;dashed=0;shape=mxgraph.bootstrap.rrect;rSize=5;fillColor=#ffffff;strokeColor=#CED4DA;align=left;spacing=15;fontSize=14;fontColor=#6C767D;" parent="1" vertex="1">
          <mxGeometry x="-810" y="7075" width="380" height="175" as="geometry" />
        </mxCell>
        <mxCell id="u0NLdab73G7xsdPlaEeC-280" value="Messages :" style="fillColor=none;strokeColor=none;align=left;fontSize=14;" parent="1" vertex="1">
          <mxGeometry x="-810" y="7045" width="120" height="30" as="geometry" />
        </mxCell>
        <mxCell id="u0NLdab73G7xsdPlaEeC-281" value="Agree to term and conditions" style="html=1;shadow=0;dashed=0;shape=mxgraph.bootstrap.checkbox2;labelPosition=right;verticalLabelPosition=middle;align=left;verticalAlign=middle;gradientColor=#DEDEDE;fillColor=#EDEDED;strokeColor=#A6A6A6;checked=0;spacing=5;checkedFill=#0085FC;checkedStroke=#ffffff;" parent="1" vertex="1">
          <mxGeometry x="-805" y="7290" width="10" height="10" as="geometry" />
        </mxCell>
        <mxCell id="u0NLdab73G7xsdPlaEeC-282" value="Submit form" style="html=1;shadow=0;dashed=0;shape=mxgraph.bootstrap.rrect;rSize=5;fillColor=#0085FC;strokeColor=none;align=center;spacing=15;fontSize=14;fontColor=#ffffff;" parent="1" vertex="1">
          <mxGeometry x="-807.5" y="7340" width="120" height="40" as="geometry" />
        </mxCell>
        <mxCell id="u0NLdab73G7xsdPlaEeC-283" value="" style="strokeWidth=1;shadow=0;dashed=0;align=center;html=1;shape=mxgraph.mockup.forms.rrect;rSize=0;strokeColor=#999999;fillColor=#ffffff;" parent="1" vertex="1">
          <mxGeometry x="-800" y="7480" width="150" height="160" as="geometry" />
        </mxCell>
        <mxCell id="u0NLdab73G7xsdPlaEeC-284" value="Garage V Parrot" style="strokeWidth=1;shadow=0;dashed=0;align=center;html=1;shape=mxgraph.mockup.forms.rrect;rSize=0;strokeColor=#999999;fontColor=#008cff;fontSize=17;fillColor=#ffffff;resizeWidth=1;whiteSpace=wrap;" parent="u0NLdab73G7xsdPlaEeC-283" vertex="1">
          <mxGeometry width="150" height="30" relative="1" as="geometry">
            <mxPoint y="-1" as="offset" />
          </mxGeometry>
        </mxCell>
        <mxCell id="u0NLdab73G7xsdPlaEeC-285" value="Adresse" style="strokeWidth=1;shadow=0;dashed=0;align=center;html=1;shape=mxgraph.mockup.forms.anchor;fontSize=17;fontColor=#666666;align=left;spacingLeft=5;resizeWidth=1;whiteSpace=wrap;" parent="u0NLdab73G7xsdPlaEeC-283" vertex="1">
          <mxGeometry width="150" height="20" relative="1" as="geometry">
            <mxPoint y="30" as="offset" />
          </mxGeometry>
        </mxCell>
        <mxCell id="u0NLdab73G7xsdPlaEeC-286" value="Numero de tel" style="strokeWidth=1;shadow=0;dashed=0;align=center;html=1;shape=mxgraph.mockup.forms.anchor;fontSize=17;fontColor=#666666;align=left;spacingLeft=5;resizeWidth=1;whiteSpace=wrap;" parent="u0NLdab73G7xsdPlaEeC-283" vertex="1">
          <mxGeometry width="150" height="20" relative="1" as="geometry">
            <mxPoint y="50" as="offset" />
          </mxGeometry>
        </mxCell>
        <mxCell id="u0NLdab73G7xsdPlaEeC-287" value="Numero de tel" style="strokeWidth=1;shadow=0;dashed=0;align=center;html=1;shape=mxgraph.mockup.forms.rrect;rSize=0;fontSize=17;fontColor=#666666;align=left;spacingLeft=5;fillColor=#ddeeff;strokeColor=none;resizeWidth=1;whiteSpace=wrap;" parent="u0NLdab73G7xsdPlaEeC-283" vertex="1">
          <mxGeometry width="150" height="20" relative="1" as="geometry">
            <mxPoint y="70" as="offset" />
          </mxGeometry>
        </mxCell>
        <mxCell id="u0NLdab73G7xsdPlaEeC-288" value="Mail" style="strokeWidth=1;shadow=0;dashed=0;align=center;html=1;shape=mxgraph.mockup.forms.anchor;fontSize=17;fontColor=#666666;align=left;spacingLeft=5;resizeWidth=1;whiteSpace=wrap;" parent="u0NLdab73G7xsdPlaEeC-283" vertex="1">
          <mxGeometry width="150" height="20" relative="1" as="geometry">
            <mxPoint y="90" as="offset" />
          </mxGeometry>
        </mxCell>
        <mxCell id="u0NLdab73G7xsdPlaEeC-289" value="" style="strokeWidth=1;shadow=0;dashed=0;align=center;html=1;shape=mxgraph.mockup.forms.rrect;rSize=0;strokeColor=#999999;fillColor=#ffffff;" parent="1" vertex="1">
          <mxGeometry x="-592.5" y="7490" width="150" height="120" as="geometry" />
        </mxCell>
        <mxCell id="u0NLdab73G7xsdPlaEeC-290" value="Reseau sociaux" style="strokeWidth=1;shadow=0;dashed=0;align=center;html=1;shape=mxgraph.mockup.forms.rrect;rSize=0;strokeColor=#999999;fontColor=#008cff;fontSize=17;fillColor=#ffffff;resizeWidth=1;whiteSpace=wrap;" parent="u0NLdab73G7xsdPlaEeC-289" vertex="1">
          <mxGeometry width="150" height="30" relative="1" as="geometry">
            <mxPoint y="-1" as="offset" />
          </mxGeometry>
        </mxCell>
        <mxCell id="u0NLdab73G7xsdPlaEeC-291" value="Facebook" style="strokeWidth=1;shadow=0;dashed=0;align=center;html=1;shape=mxgraph.mockup.forms.anchor;fontSize=17;fontColor=#666666;align=left;spacingLeft=5;resizeWidth=1;whiteSpace=wrap;" parent="u0NLdab73G7xsdPlaEeC-289" vertex="1">
          <mxGeometry width="150" height="20" relative="1" as="geometry">
            <mxPoint y="30" as="offset" />
          </mxGeometry>
        </mxCell>
        <mxCell id="u0NLdab73G7xsdPlaEeC-292" value="Instagram" style="strokeWidth=1;shadow=0;dashed=0;align=center;html=1;shape=mxgraph.mockup.forms.anchor;fontSize=17;fontColor=#666666;align=left;spacingLeft=5;resizeWidth=1;whiteSpace=wrap;" parent="u0NLdab73G7xsdPlaEeC-289" vertex="1">
          <mxGeometry width="150" height="20" relative="1" as="geometry">
            <mxPoint y="50" as="offset" />
          </mxGeometry>
        </mxCell>
        <mxCell id="u0NLdab73G7xsdPlaEeC-293" value="Linkedin" style="strokeWidth=1;shadow=0;dashed=0;align=center;html=1;shape=mxgraph.mockup.forms.rrect;rSize=0;fontSize=17;fontColor=#666666;align=left;spacingLeft=5;fillColor=#ddeeff;strokeColor=none;resizeWidth=1;whiteSpace=wrap;" parent="u0NLdab73G7xsdPlaEeC-289" vertex="1">
          <mxGeometry width="150" height="20" relative="1" as="geometry">
            <mxPoint y="70" as="offset" />
          </mxGeometry>
        </mxCell>
        <mxCell id="u0NLdab73G7xsdPlaEeC-294" value="" style="strokeWidth=1;shadow=0;dashed=0;align=center;html=1;shape=mxgraph.mockup.forms.anchor;fontSize=17;fontColor=#666666;align=left;spacingLeft=5;resizeWidth=1;whiteSpace=wrap;" parent="u0NLdab73G7xsdPlaEeC-289" vertex="1">
          <mxGeometry width="150" height="20" relative="1" as="geometry">
            <mxPoint y="90" as="offset" />
          </mxGeometry>
        </mxCell>
        <mxCell id="u0NLdab73G7xsdPlaEeC-295" value="" style="verticalLabelPosition=bottom;shadow=0;dashed=0;align=center;html=1;verticalAlign=top;strokeWidth=1;shape=mxgraph.mockup.misc.map;" parent="1" vertex="1">
          <mxGeometry x="-810" y="7750" width="390" height="340" as="geometry" />
        </mxCell>
        <mxCell id="u0NLdab73G7xsdPlaEeC-296" value="&lt;font style=&quot;font-size: 26px;&quot;&gt;Dashbord Admin&lt;/font&gt;" style="text;html=1;strokeColor=#666666;fillColor=#f5f5f5;align=center;verticalAlign=middle;whiteSpace=wrap;rounded=0;fontColor=#333333;" parent="1" vertex="1">
          <mxGeometry x="-100" y="8680" width="210" height="80" as="geometry" />
        </mxCell>
        <mxCell id="u0NLdab73G7xsdPlaEeC-297" value="" style="line;strokeWidth=1;html=1;rounded=0;shadow=0;labelBackgroundColor=none;fillColor=none;fontFamily=Verdana;fontSize=14;fontColor=#000000;align=center;comic=1;" parent="1" vertex="1">
          <mxGeometry x="15" y="8190" width="1060" height="10" as="geometry" />
        </mxCell>
        <mxCell id="u0NLdab73G7xsdPlaEeC-298" value="" style="line;strokeWidth=1;html=1;rounded=0;shadow=0;labelBackgroundColor=none;fillColor=none;fontFamily=Verdana;fontSize=14;fontColor=#000000;align=center;comic=1;" parent="1" vertex="1">
          <mxGeometry x="10" y="8490" width="1060" height="10" as="geometry" />
        </mxCell>
        <mxCell id="u0NLdab73G7xsdPlaEeC-299" value="" style="line;strokeWidth=1;html=1;rounded=0;shadow=0;labelBackgroundColor=none;fillColor=none;fontFamily=Verdana;fontSize=14;fontColor=#000000;align=center;comic=1;" parent="1" vertex="1">
          <mxGeometry x="-1080" y="8190" width="1060" height="10" as="geometry" />
        </mxCell>
        <mxCell id="u0NLdab73G7xsdPlaEeC-300" value="" style="line;strokeWidth=1;html=1;rounded=0;shadow=0;labelBackgroundColor=none;fillColor=none;fontFamily=Verdana;fontSize=14;fontColor=#000000;align=center;comic=1;" parent="1" vertex="1">
          <mxGeometry x="-1085" y="8500" width="1060" height="10" as="geometry" />
        </mxCell>
        <mxCell id="u0NLdab73G7xsdPlaEeC-301" value="" style="whiteSpace=wrap;html=1;rounded=0;shadow=0;labelBackgroundColor=none;strokeWidth=1;fontFamily=Verdana;fontSize=12;align=center;comic=1;" parent="1" vertex="1">
          <mxGeometry x="70" y="8840" width="960" height="1250" as="geometry" />
        </mxCell>
        <mxCell id="u0NLdab73G7xsdPlaEeC-302" value="" style="whiteSpace=wrap;html=1;rounded=0;shadow=0;labelBackgroundColor=none;strokeWidth=1;fontFamily=Verdana;fontSize=12;align=center;comic=1;" parent="1" vertex="1">
          <mxGeometry x="-800" y="8840" width="410" height="1710" as="geometry" />
        </mxCell>
        <mxCell id="u0NLdab73G7xsdPlaEeC-303" value="&lt;h1 style=&quot;border-color: var(--border-color);&quot;&gt;DashBord Admin&lt;br style=&quot;border-color: var(--border-color);&quot;&gt;&lt;/h1&gt;&lt;h1&gt;&lt;p style=&quot;border-color: var(--border-color); font-size: 12px; font-weight: 400;&quot;&gt;Bonjour Vincent PARROT&lt;/p&gt;&lt;/h1&gt;" style="text;html=1;strokeColor=none;fillColor=none;spacing=5;spacingTop=-20;whiteSpace=wrap;overflow=hidden;rounded=0;" parent="1" vertex="1">
          <mxGeometry x="105.5" y="8880" width="350" height="70" as="geometry" />
        </mxCell>
        <mxCell id="u0NLdab73G7xsdPlaEeC-304" value="&lt;h1 style=&quot;border-color: var(--border-color);&quot;&gt;DashBord Admin&lt;br style=&quot;border-color: var(--border-color);&quot;&gt;&lt;/h1&gt;&lt;h1&gt;&lt;p style=&quot;border-color: var(--border-color); font-size: 12px; font-weight: 400;&quot;&gt;Bonjour Vincent&lt;/p&gt;&lt;/h1&gt;" style="text;html=1;strokeColor=none;fillColor=none;spacing=5;spacingTop=-20;whiteSpace=wrap;overflow=hidden;rounded=0;" parent="1" vertex="1">
          <mxGeometry x="-792.5" y="8855" width="350" height="70" as="geometry" />
        </mxCell>
        <mxCell id="u0NLdab73G7xsdPlaEeC-306" value="Configuration des horaires d&#39;ouvertures" style="strokeWidth=1;shadow=0;dashed=0;align=center;html=1;shape=mxgraph.mockup.containers.window;align=left;verticalAlign=top;spacingLeft=8;strokeColor2=#008cff;strokeColor3=#c4c4c4;fontColor=#666666;mainText=;fontSize=17;labelBackgroundColor=none;whiteSpace=wrap;" parent="1" vertex="1">
          <mxGeometry x="150" y="9370" width="800" height="280" as="geometry" />
        </mxCell>
        <mxCell id="u0NLdab73G7xsdPlaEeC-307" value="Configuration des Services" style="strokeWidth=1;shadow=0;dashed=0;align=center;html=1;shape=mxgraph.mockup.containers.window;align=left;verticalAlign=top;spacingLeft=8;strokeColor2=#008cff;strokeColor3=#c4c4c4;fontColor=#666666;mainText=;fontSize=17;labelBackgroundColor=none;whiteSpace=wrap;" parent="1" vertex="1">
          <mxGeometry x="150" y="9000" width="800" height="300" as="geometry" />
        </mxCell>
        <mxCell id="u0NLdab73G7xsdPlaEeC-308" value="Configurations des utilisateurs" style="strokeWidth=1;shadow=0;dashed=0;align=center;html=1;shape=mxgraph.mockup.containers.window;align=left;verticalAlign=top;spacingLeft=8;strokeColor2=#008cff;strokeColor3=#c4c4c4;fontColor=#666666;mainText=;fontSize=17;labelBackgroundColor=none;whiteSpace=wrap;" parent="1" vertex="1">
          <mxGeometry x="155" y="9710" width="800" height="330" as="geometry" />
        </mxCell>
        <mxCell id="u0NLdab73G7xsdPlaEeC-309" value="Configuration des horaires d&#39;ouvertures" style="strokeWidth=1;shadow=0;dashed=0;align=center;html=1;shape=mxgraph.mockup.containers.window;align=left;verticalAlign=top;spacingLeft=8;strokeColor2=#008cff;strokeColor3=#c4c4c4;fontColor=#666666;mainText=;fontSize=17;labelBackgroundColor=none;whiteSpace=wrap;" parent="1" vertex="1">
          <mxGeometry x="-785" y="9490" width="385" height="490" as="geometry" />
        </mxCell>
        <mxCell id="u0NLdab73G7xsdPlaEeC-310" value="Configuration des Services" style="strokeWidth=1;shadow=0;dashed=0;align=center;html=1;shape=mxgraph.mockup.containers.window;align=left;verticalAlign=top;spacingLeft=8;strokeColor2=#008cff;strokeColor3=#c4c4c4;fontColor=#666666;mainText=;fontSize=17;labelBackgroundColor=none;whiteSpace=wrap;" parent="1" vertex="1">
          <mxGeometry x="-777.5" y="8980" width="370" height="470" as="geometry" />
        </mxCell>
        <mxCell id="u0NLdab73G7xsdPlaEeC-311" value="Configurations des utilisateurs" style="strokeWidth=1;shadow=0;dashed=0;align=center;html=1;shape=mxgraph.mockup.containers.window;align=left;verticalAlign=top;spacingLeft=8;strokeColor2=#008cff;strokeColor3=#c4c4c4;fontColor=#666666;mainText=;fontSize=17;labelBackgroundColor=none;whiteSpace=wrap;" parent="1" vertex="1">
          <mxGeometry x="-785" y="10030" width="385" height="480" as="geometry" />
        </mxCell>
      </root>
    </mxGraphModel>
  </diagram>
</mxfile>
